<svg width="15" height="14" viewBox="0 0 15 14" fill="none" xmlns="http://www.w3.org/2000/svg">
<path d="M7.40264 2.09094H3.20059C2.88217 2.09094 2.5768 2.21545 2.35164 2.43709C2.12649 2.65872 2 2.95932 2 3.27276V11.5455C2 11.8589 2.12649 12.1595 2.35164 12.3811C2.5768 12.6028 2.88217 12.7273 3.20059 12.7273H11.6047C11.9231 12.7273 12.2285 12.6028 12.4536 12.3811C12.6788 12.1595 12.8053 11.8589 12.8053 11.5455V7.40911" stroke="white" stroke-linecap="round" stroke-linejoin="round"/>
<path d="M11.505 1.63269C11.7391 1.4022 12.0567 1.27271 12.3879 1.27271C12.719 1.27271 13.0366 1.4022 13.2708 1.63269C13.5049 1.86319 13.6365 2.17581 13.6365 2.50178C13.6365 2.82775 13.5049 3.14038 13.2708 3.37087L7.67909 8.8751L5.32471 9.4545L5.9133 7.13693L11.505 1.63269Z" stroke="white" stroke-linecap="round" stroke-linejoin="round"/>
</svg>
