<svg width="34" height="34" viewBox="0 0 34 34" fill="none" xmlns="http://www.w3.org/2000/svg">
<path fill-rule="evenodd" clip-rule="evenodd" d="M12.0134 2.03999H2.04004V12.0133H5.36448V5.36444H12.0134V2.03999ZM2.04004 31.96V21.9867H5.36448V28.6355H12.0134V31.96H2.04004ZM21.9867 2.03999V5.36444H28.6356V12.0133H31.96V2.03999H21.9867ZM28.6356 21.9867H31.96V31.96H21.9867V28.6355H28.6356V21.9867Z" fill="black"/>
<path fill-rule="evenodd" clip-rule="evenodd" d="M18.8779 9.52C19.101 9.52 19.312 9.62379 19.4514 9.80208L20.9934 11.7747H23.6373C24.8541 11.7747 25.8405 12.7842 25.8405 14.0295V21.5452C25.8405 22.7905 24.8541 23.8 23.6373 23.8H9.68367C8.46688 23.8 7.48047 22.7905 7.48047 21.5452V14.0295C7.48047 12.7842 8.46688 11.7747 9.68367 11.7747H12.3268L13.8696 9.80208C14.0089 9.62379 14.2199 9.52 14.443 9.52H18.8779ZM16.6608 13.278C14.3286 13.278 12.438 15.2128 12.438 17.5996C12.438 19.9863 14.3286 21.9211 16.6608 21.9211C18.993 21.9211 20.8836 19.9863 20.8836 17.5996C20.8836 15.2128 18.993 13.278 16.6608 13.278ZM16.6597 14.4054C18.3835 14.4054 19.7809 15.8355 19.7809 17.5996C19.7809 19.3638 18.3835 20.7939 16.6597 20.7939C14.9359 20.7939 13.5385 19.3638 13.5385 17.5996C13.5385 15.8355 14.9359 14.4054 16.6597 14.4054ZM21.8013 13.0899C21.4971 13.0899 21.2505 13.3423 21.2505 13.6536C21.2505 13.9649 21.4971 14.2173 21.8013 14.2173C22.1055 14.2173 22.3521 13.9649 22.3521 13.6536C22.3521 13.3423 22.1055 13.0899 21.8013 13.0899ZM10.6221 10.88C10.8249 10.88 10.9893 11.0483 10.9893 11.2558V11.6316H9.52047V11.2558C9.52047 11.0483 9.68487 10.88 9.88767 10.88H10.6221Z" fill="#717171"/>
</svg>
