<svg width="12" height="20" viewBox="0 0 12 20" fill="none" xmlns="http://www.w3.org/2000/svg">
<path d="M5.1665 14.1133V17.5H2.6665C2.44549 17.5 2.23353 17.5878 2.07725 17.7441C1.92097 17.9004 1.83317 18.1123 1.83317 18.3333C1.83317 18.5543 1.92097 18.7663 2.07725 18.9226C2.23353 19.0789 2.44549 19.1667 2.6665 19.1667H9.33317C9.55418 19.1667 9.76614 19.0789 9.92243 18.9226C10.0787 18.7663 10.1665 18.5543 10.1665 18.3333C10.1665 18.1123 10.0787 17.9004 9.92243 17.7441C9.76614 17.5878 9.55418 17.5 9.33317 17.5H6.83317V14.1133C8.9165 13.8583 11.8332 12.6258 11.8332 9.16667C11.8332 3.71417 6.59567 1.0325 6.37234 0.920835C6.25667 0.863036 6.12914 0.832947 5.99984 0.832947C5.87053 0.832947 5.743 0.863036 5.62734 0.920835C5.404 1.0325 0.166504 3.71417 0.166504 9.16667C0.166504 12.6258 3.08317 13.8583 5.1665 14.1133ZM5.99984 2.62667C7.08317 3.29333 10.1665 5.51667 10.1665 9.16667C10.1665 11.5508 8.05067 12.2275 6.83317 12.4167V11.1783L9.089 8.9225C9.2408 8.76533 9.3248 8.55483 9.3229 8.33633C9.321 8.11784 9.23336 7.90883 9.07885 7.75432C8.92434 7.59981 8.71533 7.51217 8.49684 7.51027C8.27834 7.50837 8.06784 7.59237 7.91067 7.74417L6.83317 8.82167V6.66667C6.83317 6.44565 6.74537 6.23369 6.58909 6.07741C6.43281 5.92113 6.22085 5.83333 5.99984 5.83333C5.77882 5.83333 5.56686 5.92113 5.41058 6.07741C5.2543 6.23369 5.1665 6.44565 5.1665 6.66667V8.82167L4.089 7.74417C3.93183 7.59237 3.72133 7.50837 3.50284 7.51027C3.28434 7.51217 3.07533 7.59981 2.92082 7.75432C2.76631 7.90883 2.67867 8.11784 2.67678 8.33633C2.67488 8.55483 2.75887 8.76533 2.91067 8.9225L5.1665 11.1783V12.4283C3.949 12.2367 1.83317 11.5667 1.83317 9.16667C1.83317 5.51667 4.9165 3.29667 5.99984 2.62667Z" fill="#222222"/>
</svg>
