<svg width="178" height="80" viewBox="0 0 178 80" fill="none" xmlns="http://www.w3.org/2000/svg">
<g clip-path="url(#clip0_4250_603)">
<path d="M70.2668 59.1853C70.0399 59.5154 69.5236 59.8086 68.7152 60.0676C66.9509 60.5287 65.2347 60.4234 63.5697 59.7602C63.2151 59.5553 62.9513 59.3247 62.7726 59.0714C62.5967 58.8153 62.5088 58.4595 62.5088 57.9984C62.4067 54.0136 62.3046 50.0146 62.2025 46.0014C62.1003 41.991 61.9982 37.9891 61.8961 34.0044C61.8451 32.3706 61.8592 30.734 61.933 29.0974C62.0096 27.4636 62.0465 25.827 62.0465 24.1904C61.8933 24.1904 61.7656 24.1648 61.6635 24.1136C61.5614 24.3698 61.4735 24.6003 61.3969 24.8024C61.3203 25.0073 61.2324 25.2379 61.1302 25.4912C60.3161 27.8422 59.5247 30.1932 58.7617 32.5442C57.9987 34.8952 57.2073 37.2463 56.3932 39.5973C56.1889 40.2121 55.8968 40.7358 55.5139 41.1684C55.1309 41.6039 54.609 41.8714 53.9481 41.9739C52.4192 42.1276 50.9158 42.1276 49.4408 41.9739C48.3714 41.8202 47.6339 41.1058 47.2254 39.8278C46.2581 36.6087 45.2767 33.4266 44.2839 30.2843C43.2911 27.142 42.2841 23.9855 41.2658 20.8176C41.2658 20.7151 41.2403 20.6127 41.1892 20.5102C41.1381 20.4077 41.0616 20.2313 40.9594 19.9723C40.9084 20.2284 40.8829 20.4334 40.8829 20.5871L39.7369 57.3864C39.7369 57.6398 39.7482 57.8845 39.7766 58.1151C39.8021 58.3456 39.8645 58.5876 39.9666 58.8437C40.2191 59.5581 39.9922 60.1473 39.2802 60.6084C38.8717 60.8617 38.364 61.0553 37.7513 61.1834C37.1386 61.3114 36.5032 61.3627 35.8394 61.3371C35.1785 61.3114 34.5545 61.2346 33.9673 61.1065C33.383 60.9784 32.9093 60.7621 32.5547 60.4547C32.1462 60.1986 31.8909 59.8143 31.7917 59.3048C31.6896 58.9974 31.6385 58.6786 31.6385 58.3456V57.3893C31.7406 53.0971 31.8541 48.8419 31.9817 44.6238C32.1094 40.4085 32.2484 36.1533 32.4015 31.8583C32.5036 27.976 32.6426 24.0908 32.8213 20.2057C32.9972 16.3234 33.1646 12.4382 33.3177 8.55305C33.3688 7.83864 33.4057 7.12138 33.4312 6.40696C33.4567 5.69255 33.5191 4.92406 33.6241 4.10718C33.1646 4.31211 32.7306 4.48004 32.3249 4.60528C31.9165 4.73336 31.5109 4.87283 31.1024 5.02653C29.3182 5.84625 27.7013 6.85383 26.249 8.05495C24.7967 9.25608 23.6365 10.7532 22.7714 12.5407C22.5161 13.053 22.3374 13.5881 22.2353 14.1517C22.1332 14.7152 22.0311 15.2759 21.9289 15.8395C21.8268 16.6051 21.5205 17.0918 21.0127 17.2968C18.8229 18.2674 16.7097 18.2161 14.673 17.1431C13.6547 16.5824 13.4249 15.4325 13.9866 13.6934C14.4433 12.1593 15.1184 10.7817 16.0119 9.55494C16.9026 8.32819 17.9351 7.20392 19.1066 6.18211C23.1373 2.74667 27.7212 0.728664 32.8667 0.11387C33.9361 -0.0398284 35.0168 -0.0398284 36.1146 0.11387C37.2095 0.267568 38.2675 0.446883 39.2859 0.651814C40.151 0.805513 40.9027 1.1613 41.5409 1.72486C42.1763 2.28842 42.6727 2.97721 43.0301 3.79409C44.5051 7.16692 45.8809 10.6678 47.1573 14.2968C47.9714 16.4941 48.7345 18.7057 49.4493 20.9286C50.1613 23.1515 50.9016 25.3887 51.6646 27.6373C51.7667 27.8422 51.8433 28.0471 51.8944 28.2521C52.0476 27.791 52.1866 27.3839 52.3142 27.0253C52.4418 26.6695 52.5808 26.3109 52.734 25.9523C53.8545 23.0918 54.9749 20.2683 56.0953 17.4818C57.2158 14.6981 58.3362 11.8974 59.4567 9.08815C59.763 8.37373 60.041 7.63086 60.2963 6.86521C60.5487 6.09957 60.804 5.35669 61.0593 4.64228C61.465 3.16222 62.4776 2.29126 64.0945 2.0351C64.9029 1.93263 65.6829 1.90702 66.4403 1.95825C67.1977 2.00948 67.9267 2.21441 68.633 2.57304C69.5917 2.98291 70.0456 3.69732 69.9945 4.71913C69.9434 7.58247 69.9037 10.4316 69.881 13.2665C69.8555 16.1042 69.8413 18.9533 69.8413 21.8138V30.2074C69.8413 32.9939 69.8669 35.7918 69.9179 38.6011C69.969 40.7984 70.02 42.9843 70.0711 45.156C70.1221 47.3306 70.1987 49.5137 70.3008 51.711L70.5306 57.4604C70.5817 58.2773 70.4909 58.8523 70.264 59.1853H70.2668Z" fill="#014A3D"/>
<path d="M75.361 24.6487C74.2831 24.2388 73.7668 23.4988 73.8179 22.4257C73.869 21.5064 73.9058 20.5984 73.9314 19.7047C73.9569 18.811 73.9711 17.9286 73.9711 17.0605C73.9711 16.1924 74.3824 15.6032 75.205 15.2958C77.1594 14.5814 79.0599 14.5558 80.9121 15.219C81.8369 15.6289 82.2992 16.3433 82.2992 17.3651C82.2482 17.8262 82.2226 18.2844 82.2226 18.7455C82.2226 19.2066 82.1971 19.6649 82.1461 20.126H82.0666C82.0666 20.5358 82.0524 20.9571 82.0298 21.3897C82.0042 21.8252 82.0156 22.2464 82.0666 22.6534C82.1687 23.217 82.0922 23.6383 81.8369 23.92C81.5787 24.2018 81.2469 24.4181 80.8356 24.5718C79.0343 25.235 77.2104 25.2606 75.361 24.6487ZM82.529 31.0129C82.4779 33.0565 82.4524 35.103 82.4524 37.1466V55.468C82.4524 56.1825 82.3616 56.7204 82.1829 57.079C82.0014 57.4377 81.5532 57.6654 80.8327 57.7678C80.1122 57.9215 79.3804 58.0354 78.6344 58.1122C77.8884 58.1891 77.1565 58.1748 76.4361 58.0724C75.5113 57.9699 74.9071 57.7137 74.6235 57.3067C74.3398 56.8969 74.2008 56.2337 74.2008 55.3115V37.2178C74.2008 36.2472 74.2122 35.288 74.2406 34.3431C74.2661 33.3981 74.2519 32.4389 74.2008 31.4683C74.2008 30.1904 74.7653 29.3991 75.8971 29.0917C77.8004 28.531 79.5733 28.531 81.2185 29.0917C82.0922 29.3991 82.529 30.0395 82.529 31.0101V31.0129Z" fill="#014A3D"/>
<path d="M112.628 52.2461C113.241 50.6123 113.709 48.9245 114.041 47.1854C114.373 45.4492 114.588 43.6845 114.69 41.8971C114.943 39.4436 115.121 37.0414 115.226 34.6903C115.328 32.3393 115.431 29.9371 115.533 27.4836C115.584 26.2056 115.558 24.9276 115.456 23.6525C115.354 22.3745 115.252 21.0966 115.15 19.8186C115.099 19.053 115.175 18.478 115.38 18.0938C115.584 17.7095 116.04 17.4704 116.755 17.3651C117.47 17.2114 118.171 17.1232 118.857 17.0976C119.544 17.0719 120.244 17.1118 120.959 17.2143C121.824 17.3167 122.411 17.5587 122.718 17.9429C123.024 18.3272 123.225 18.9533 123.328 19.8214C123.736 22.6336 123.875 25.4172 123.747 28.1781C123.62 30.939 123.481 33.697 123.328 36.4579C123.225 38.9626 123.021 41.4531 122.718 43.9322C122.411 46.4113 121.901 48.8761 121.189 51.3296C120.681 53.2195 119.941 55.1351 118.973 57.0791C118.412 58.2546 117.558 59.1369 116.415 59.7232C115.269 60.3096 114.072 60.617 112.824 60.6426C111.576 60.6682 110.364 60.4519 109.196 59.9908C108.024 59.5297 107.134 58.8409 106.521 57.9216C105.806 56.951 105.259 55.9406 104.879 54.8931C104.496 53.8457 104.152 52.784 103.849 51.711C103.747 51.304 103.656 50.9055 103.582 50.5241C103.506 50.1399 103.389 49.6702 103.239 49.1067C102.882 49.8723 102.575 50.5782 102.323 51.2158C102.068 51.8562 101.761 52.4795 101.407 53.0943C100.439 54.933 99.126 56.2223 97.4723 56.9652C95.8158 57.7052 93.9947 57.8476 92.0091 57.3865C89.8193 56.8741 88.3669 55.7242 87.655 53.9368C87.2976 53.0174 86.9799 52.0839 86.699 51.1389C86.4182 50.1939 86.2282 49.2348 86.1261 48.2642C85.8197 45.657 85.6297 43.0384 85.5531 40.4056C85.4765 37.7728 85.5644 35.1543 85.8197 32.5471C85.9729 30.4522 86.1261 28.3944 86.2764 26.3764C86.4296 24.3584 86.6083 22.3005 86.8125 20.2057C86.9146 19.1839 87.1699 18.4695 87.5784 18.0596C87.984 17.6526 88.6988 17.3964 89.7172 17.294C90.4291 17.1915 91.1298 17.1915 91.819 17.294C92.5055 17.3964 93.2061 17.5245 93.9209 17.6782C94.8371 17.8319 95.2201 18.5207 95.0669 19.7474C94.5563 23.3252 94.1876 26.8916 93.9606 30.4409C93.7309 33.993 93.6656 37.585 93.7678 41.214C93.8188 42.492 93.8954 43.7557 93.9975 45.0081C94.0996 46.2604 94.2018 47.527 94.3039 48.8021C94.5592 48.8021 94.735 48.8277 94.84 48.879C94.9932 48.267 95.1577 47.6778 95.3364 47.1171C95.5151 46.5564 95.6541 45.9672 95.7562 45.3524C96.2639 42.287 96.7603 39.2444 97.2454 36.2302C97.7304 33.216 98.2268 30.1733 98.7346 27.1079C98.8367 26.4931 98.9502 25.8698 99.0778 25.2293C99.2055 24.5918 99.3189 23.9656 99.421 23.3508C99.6253 22.1241 100.388 21.384 101.713 21.1279C102.629 20.9742 103.596 20.8973 104.615 20.8973C105.939 20.9998 106.881 21.293 107.443 21.7797C108.002 22.2664 108.359 23.1715 108.512 24.5007C108.87 27.5661 109.199 30.6344 109.505 33.6998C109.811 36.7653 110.166 39.8335 110.574 42.899C110.83 44.4843 111.082 46.0412 111.337 47.5754C111.593 49.1095 111.845 50.6693 112.1 52.2518H112.637L112.628 52.2461Z" fill="#014A3D"/>
<path d="M135.168 42.7395C135.117 45.193 135.179 47.5696 135.358 49.8694C135.536 52.1692 136.285 54.4178 137.613 56.6151C137.766 56.2052 137.942 55.784 138.149 55.3513C138.353 54.9159 138.478 54.469 138.532 54.0107C138.685 53.1426 138.787 52.3001 138.838 51.4804C138.889 50.6635 138.915 49.8182 138.915 48.9501C138.915 47.9795 139.298 47.3676 140.061 47.1114C141.896 46.397 143.754 46.397 145.637 47.1114C146.758 47.5213 147.266 48.2869 147.163 49.4112C147.061 50.433 146.959 51.4804 146.857 52.5563C146.755 53.6293 146.551 54.6768 146.244 55.6986C144.818 60.5031 141.38 62.5723 135.931 61.9091C132.059 61.448 129.512 59.3276 128.292 55.5449C127.781 54.0648 127.452 52.5677 127.299 51.0592C127.146 49.5506 127.018 48.0307 126.916 46.4966C126.814 43.6873 126.902 40.9008 127.183 38.14C127.461 35.3791 128.034 32.6467 128.902 29.937C129.208 28.864 129.614 27.8166 130.124 26.7947C130.632 25.7729 131.168 24.7767 131.73 23.8033C132.952 21.9646 134.441 20.8005 136.197 20.3138C137.956 19.8299 139.854 19.7901 141.89 20.2C143.927 20.5586 145.584 21.3498 146.857 22.5766C148.131 23.8033 149.047 25.4115 149.609 27.4067C150.27 29.6552 150.193 32.0319 149.379 34.5366C148.616 36.9901 147.379 38.8572 145.674 40.1324C143.967 41.4103 141.893 42.2016 139.448 42.509C138.787 42.6115 138.112 42.6627 137.423 42.6627C136.733 42.6627 135.985 42.6883 135.17 42.7395H135.168ZM139.752 24.6458C138.172 26.8431 137.128 29.0917 136.617 31.3915C136.109 33.6913 135.701 36.0423 135.395 38.4445C136.158 38.8544 136.858 38.9682 137.496 38.7889C138.132 38.6096 138.654 38.2396 139.062 37.676C139.522 37.1153 139.942 36.5261 140.322 35.9142C140.705 35.2994 141.022 34.6362 141.275 33.919C141.836 32.3364 142.012 30.7767 141.811 29.2425C141.607 27.7084 140.92 26.1771 139.749 24.643L139.752 24.6458Z" fill="#014A3D"/>
<path d="M11.4993 55.2887C16.7186 54.1161 21.9152 55.4937 25.7843 58.6075C23.6086 63.079 19.4984 66.5514 14.2763 67.7269C9.06273 68.8996 3.86614 67.522 -0.00292969 64.4082C2.17271 59.9367 6.28289 56.4642 11.4965 55.2916L11.4993 55.2887Z" fill="#D8DF50"/>
<path d="M27.827 74.4925C26.0854 77.5608 23.1155 79.4877 19.8903 79.9972C18.6848 76.9545 18.8209 73.4081 20.5654 70.3398C22.307 67.2744 25.2769 65.3474 28.4993 64.838C29.7048 67.8806 29.5686 71.4271 27.827 74.4925Z" fill="#D8DF50"/>
<path d="M169.368 22.6335C164.653 25.1724 159.281 25.2492 154.72 23.2938C155.613 18.3983 158.646 13.9439 163.357 11.405C168.063 8.86896 173.438 8.79211 177.999 10.7475C177.106 15.6431 174.074 20.0975 169.368 22.6335Z" fill="#D8DF50"/>
<path d="M148.494 8.54166C149.35 5.11475 151.693 2.45919 154.66 1.09583C156.638 3.70016 157.457 7.15268 156.601 10.5796C155.747 14.0008 153.404 16.6592 150.434 18.0197C148.457 15.4154 147.637 11.9629 148.494 8.54166Z" fill="#D8DF50"/>
</g>
<defs>
<clipPath id="clip0_4250_603">
<rect width="178" height="80" fill="white"/>
</clipPath>
</defs>
</svg>
