<svg width="85" height="39" viewBox="0 0 85 39" fill="none" xmlns="http://www.w3.org/2000/svg">
<g clip-path="url(#clip0_142_274)">
<path d="M33.5543 28.8528C33.446 29.0138 33.1995 29.1567 32.8134 29.283C31.9709 29.5077 31.1514 29.4564 30.3563 29.1331C30.187 29.0332 30.061 28.9208 29.9757 28.7973C29.8917 28.6724 29.8497 28.499 29.8497 28.2742C29.8009 26.3316 29.7522 24.3821 29.7034 22.4257C29.6546 20.4706 29.6059 18.5197 29.5571 16.5771C29.5327 15.7807 29.5395 14.9828 29.5747 14.185C29.6113 13.3885 29.6289 12.5907 29.6289 11.7928C29.5557 11.7928 29.4948 11.7803 29.446 11.7554C29.3973 11.8802 29.3553 11.9926 29.3187 12.0912C29.2821 12.1911 29.2401 12.3034 29.1914 12.4269C28.8026 13.5731 28.4247 14.7192 28.0603 15.8653C27.696 17.0114 27.318 18.1575 26.9293 19.3037C26.8318 19.6034 26.6923 19.8587 26.5094 20.0696C26.3265 20.2819 26.0773 20.4123 25.7617 20.4623C25.0316 20.5372 24.3137 20.5372 23.6093 20.4623C23.0987 20.3873 22.7465 20.0391 22.5514 19.4161C22.0895 17.8467 21.6209 16.2954 21.1468 14.7636C20.6727 13.2317 20.1918 11.6929 19.7055 10.1486C19.7055 10.0986 19.6934 10.0487 19.669 9.99872C19.6446 9.94877 19.608 9.86274 19.5592 9.73647C19.5349 9.86135 19.5227 9.96126 19.5227 10.0362L18.9754 27.9759C18.9754 28.0994 18.9809 28.2187 18.9944 28.3311C19.0066 28.4435 19.0364 28.5614 19.0852 28.6863C19.2057 29.0346 19.0974 29.3218 18.7574 29.5466C18.5623 29.6701 18.3198 29.7644 18.0273 29.8269C17.7347 29.8893 17.4313 29.9143 17.1143 29.9018C16.7987 29.8893 16.5007 29.8519 16.2203 29.7894C15.9413 29.727 15.7151 29.6215 15.5458 29.4717C15.3507 29.3468 15.2288 29.1595 15.1814 28.9111C15.1326 28.7612 15.1082 28.6058 15.1082 28.4435V27.9773C15.157 25.8848 15.2112 23.8104 15.2721 21.7541C15.3331 19.6991 15.3995 17.6247 15.4726 15.5309C15.5214 13.6383 15.5877 11.7443 15.6731 9.85025C15.7571 7.95762 15.837 6.06361 15.9101 4.1696C15.9345 3.82132 15.9521 3.47166 15.9643 3.12338C15.9765 2.77511 16.0063 2.40047 16.0564 2.00224C15.837 2.10214 15.6297 2.18401 15.436 2.24506C15.241 2.3075 15.0473 2.37549 14.8522 2.45042C14.0002 2.85004 13.2281 3.34123 12.5346 3.92678C11.8411 4.51233 11.2871 5.24218 10.8739 6.11357C10.752 6.36333 10.6667 6.62419 10.6179 6.89892C10.5692 7.17366 10.5204 7.44701 10.4717 7.72174C10.4229 8.09499 10.2766 8.33227 10.0341 8.43217C8.98843 8.90533 7.9793 8.88035 7.00674 8.35724C6.52046 8.08389 6.41075 7.52332 6.67894 6.67553C6.89703 5.92763 7.21941 5.25606 7.64608 4.65802C8.07141 4.05998 8.56446 3.5119 9.12389 3.01377C11.0487 1.33899 13.2376 0.355214 15.6948 0.0555017C16.2054 -0.0194263 16.7215 -0.0194263 17.2457 0.0555017C17.7686 0.13043 18.2738 0.217846 18.7601 0.31775C19.1732 0.392677 19.5322 0.566122 19.8369 0.840858C20.1403 1.11559 20.3774 1.45138 20.5481 1.84961C21.2524 3.49386 21.9094 5.20055 22.5189 6.96969C22.9077 8.04088 23.272 9.11901 23.6134 10.2027C23.9534 11.2864 24.3069 12.377 24.6713 13.4732C24.72 13.5731 24.7566 13.673 24.781 13.7729C24.8541 13.5481 24.9205 13.3497 24.9815 13.1748C25.0424 13.0014 25.1088 12.8266 25.1819 12.6517C25.717 11.2572 26.252 9.88078 26.7871 8.52236C27.3221 7.16533 27.8572 5.79998 28.3922 4.43046C28.5385 4.08219 28.6712 3.72003 28.7931 3.34678C28.9137 2.97353 29.0356 2.61138 29.1575 2.2631C29.3512 1.54157 29.8348 1.11698 30.6069 0.992101C30.9929 0.942149 31.3654 0.929661 31.7271 0.954637C32.0887 0.979613 32.4368 1.07952 32.7741 1.25435C33.232 1.45416 33.4487 1.80243 33.4243 2.30057C33.3999 3.69645 33.381 5.08539 33.3701 6.46739C33.3579 7.85078 33.3512 9.23973 33.3512 10.6342V14.7261C33.3512 16.0845 33.3634 17.4485 33.3877 18.818C33.4121 19.8892 33.4365 20.9549 33.4609 22.0136C33.4853 23.0736 33.5218 24.1379 33.5706 25.2091L33.6803 28.012C33.7047 28.4102 33.6614 28.6905 33.553 28.8528H33.5543Z" fill="#F3F4F6"/>
<path d="M35.987 12.0162C35.4723 11.8164 35.2258 11.4557 35.2502 10.9325C35.2746 10.4844 35.2922 10.0417 35.3044 9.60604C35.3166 9.17035 35.3233 8.74021 35.3233 8.317C35.3233 7.8938 35.5197 7.60658 35.9126 7.45672C36.8458 7.10844 37.7534 7.09596 38.6379 7.41926C39.0795 7.61906 39.3003 7.96734 39.3003 8.46547C39.2759 8.69026 39.2637 8.91365 39.2637 9.13844C39.2637 9.36322 39.2515 9.58662 39.2271 9.8114H39.1892C39.1892 10.0112 39.1824 10.2166 39.1716 10.4275C39.1594 10.6398 39.1648 10.8451 39.1892 11.0435C39.2379 11.3183 39.2014 11.5236 39.0795 11.661C38.9562 11.7984 38.7977 11.9038 38.6013 11.9788C37.7412 12.3021 36.8702 12.3145 35.987 12.0162ZM39.41 15.1188C39.3856 16.1151 39.3734 17.1127 39.3734 18.109V27.0407C39.3734 27.3889 39.3301 27.6512 39.2447 27.826C39.158 28.0009 38.944 28.1119 38.6 28.1618C38.2559 28.2367 37.9064 28.2922 37.5502 28.3297C37.1939 28.3672 36.8445 28.3602 36.5004 28.3103C36.0588 28.2603 35.7703 28.1355 35.6349 27.937C35.4994 27.7372 35.433 27.4139 35.433 26.9644V18.1437C35.433 17.6705 35.4385 17.2029 35.452 16.7422C35.4642 16.2816 35.4574 15.814 35.433 15.3408C35.433 14.7178 35.7026 14.3321 36.2431 14.1822C37.152 13.9088 37.9985 13.9088 38.7842 14.1822C39.2014 14.3321 39.41 14.6443 39.41 15.1174V15.1188Z" fill="#F3F4F6"/>
<path d="M53.7831 25.47C54.0757 24.6735 54.2992 23.8507 54.4577 23.0029C54.6162 22.1565 54.7191 21.2962 54.7679 20.4248C54.8884 19.2287 54.9738 18.0576 55.0239 16.9115C55.0727 15.7654 55.1214 14.5943 55.1702 13.3982C55.1946 12.7752 55.1824 12.1522 55.1336 11.5306C55.0848 10.9076 55.0361 10.2846 54.9873 9.66155C54.9629 9.28829 54.9995 9.00801 55.097 8.82069C55.1946 8.63337 55.4126 8.51681 55.754 8.46547C56.0953 8.39054 56.4299 8.34753 56.7577 8.33504C57.0855 8.32255 57.4201 8.34198 57.7614 8.39193C58.1745 8.44188 58.4549 8.55983 58.6012 8.74715C58.7475 8.93447 58.8437 9.23973 58.8925 9.66293C59.0875 11.0338 59.1539 12.3909 59.0929 13.7368C59.032 15.0827 58.9656 16.4273 58.8925 17.7732C58.8437 18.9942 58.7462 20.2084 58.6012 21.4169C58.4549 22.6255 58.2111 23.8271 57.8711 25.0232C57.6287 25.9445 57.2751 26.8783 56.8132 27.826C56.545 28.3991 56.1373 28.8292 55.5914 29.1151C55.0442 29.4009 54.4726 29.5508 53.8766 29.5632C53.2806 29.5757 52.7022 29.4703 52.1441 29.2455C51.5847 29.0207 51.1594 28.6849 50.8668 28.2367C50.5255 27.7636 50.264 27.271 50.0825 26.7604C49.8997 26.2498 49.7358 25.7322 49.5908 25.2091C49.5421 25.0107 49.4987 24.8164 49.4635 24.6305C49.4269 24.4432 49.3714 24.2142 49.2996 23.9395C49.1289 24.3127 48.9826 24.6569 48.8621 24.9677C48.7402 25.2799 48.5939 25.5837 48.4246 25.8834C47.9627 26.7798 47.3355 27.4084 46.5458 27.7705C45.7548 28.1313 44.8852 28.2007 43.937 27.9759C42.8913 27.7261 42.1978 27.1655 41.8578 26.2942C41.6871 25.846 41.5354 25.3909 41.4013 24.9302C41.2672 24.4695 41.1764 24.0019 41.1277 23.5288C40.9814 22.2578 40.8906 20.9812 40.8541 19.6977C40.8175 18.4142 40.8595 17.1377 40.9814 15.8667C41.0545 14.8455 41.1277 13.8422 41.1995 12.8585C41.2726 11.8747 41.3579 10.8715 41.4555 9.85025C41.5042 9.35212 41.6261 9.00384 41.8212 8.80404C42.0149 8.60562 42.3562 8.48074 42.8425 8.43078C43.1825 8.38083 43.5171 8.38083 43.8462 8.43078C44.174 8.48074 44.5086 8.54318 44.8499 8.6181C45.2875 8.69303 45.4703 9.02882 45.3972 9.62686C45.1534 11.371 44.9773 13.1096 44.8689 14.8399C44.7592 16.5716 44.728 18.3227 44.7768 20.0918C44.8012 20.7148 44.8378 21.3309 44.8865 21.9414C44.9353 22.5519 44.984 23.1694 45.0328 23.791C45.1547 23.791 45.2387 23.8035 45.2888 23.8285C45.362 23.5302 45.4405 23.2429 45.5259 22.9696C45.6112 22.6962 45.6776 22.409 45.7263 22.1093C45.9688 20.6149 46.2058 19.1316 46.4375 17.6622C46.6691 16.1928 46.9061 14.7095 47.1486 13.2151C47.1974 12.9154 47.2515 12.6115 47.3125 12.2993C47.3735 11.9885 47.4276 11.6832 47.4764 11.3835C47.5739 10.7855 47.9383 10.4247 48.5709 10.2998C49.0084 10.2249 49.4703 10.1874 49.9566 10.1874C50.5891 10.2374 51.0388 10.3803 51.307 10.6176C51.5739 10.8548 51.7445 11.2961 51.8177 11.9441C51.9884 13.4385 52.1455 14.9343 52.2918 16.4287C52.4381 17.923 52.6074 19.4188 52.8024 20.9132C52.9244 21.6861 53.0449 22.4451 53.1668 23.193C53.2887 23.9409 53.4093 24.7013 53.5312 25.4727H53.7872L53.7831 25.47Z" fill="#F3F4F6"/>
<path d="M64.5464 20.8355C64.522 22.0316 64.5518 23.1902 64.6372 24.3113C64.7225 25.4325 65.0801 26.5287 65.714 27.5998C65.7872 27.4 65.8711 27.1947 65.97 26.9838C66.0675 26.7715 66.1272 26.5536 66.1529 26.3302C66.226 25.907 66.2748 25.4963 66.2992 25.0967C66.3236 24.6985 66.3357 24.2864 66.3357 23.8632C66.3357 23.39 66.5186 23.0917 66.883 22.9668C67.7594 22.6185 68.6466 22.6185 69.546 22.9668C70.081 23.1666 70.3235 23.5399 70.2747 24.0879C70.226 24.5861 70.1772 25.0967 70.1285 25.6212C70.0797 26.1443 69.9822 26.6549 69.8359 27.1531C69.1545 29.4952 67.5128 30.504 64.9108 30.1807C63.0618 29.9559 61.8455 28.9222 61.263 27.0781C61.0192 26.3566 60.8621 25.6267 60.7889 24.8913C60.7158 24.1559 60.6548 23.415 60.6061 22.6671C60.5573 21.2976 60.5993 19.9392 60.7334 18.5932C60.8661 17.2473 61.1397 15.9152 61.5542 14.5943C61.7005 14.0712 61.8942 13.5606 62.138 13.0624C62.3805 12.5643 62.6365 12.0787 62.9047 11.6041C63.4885 10.7078 64.1996 10.1402 65.0381 9.90298C65.8779 9.66709 66.7841 9.64767 67.7567 9.84747C68.7292 10.0223 69.5203 10.408 70.1285 11.0061C70.7366 11.6041 71.1742 12.3881 71.4424 13.3608C71.758 14.4569 71.7214 15.6155 71.3326 16.8366C70.9683 18.0327 70.3777 18.9429 69.5636 19.5645C68.7482 20.1875 67.758 20.5733 66.5904 20.7231C66.2748 20.7731 65.9524 20.7981 65.6233 20.7981C65.2941 20.7981 64.9365 20.8105 64.5478 20.8355H64.5464ZM66.7353 12.0148C65.9809 13.086 65.4824 14.1822 65.2386 15.3033C64.9961 16.4245 64.8011 17.5706 64.6548 18.7417C65.0191 18.9415 65.3537 18.997 65.6585 18.9096C65.9619 18.8222 66.2111 18.6418 66.4062 18.3671C66.6256 18.0937 66.8261 17.8065 67.0076 17.5082C67.1905 17.2085 67.3422 16.8852 67.4627 16.5355C67.7309 15.764 67.8149 15.0036 67.7187 14.2557C67.6212 13.5078 67.2934 12.7613 66.734 12.0134L66.7353 12.0148Z" fill="#F3F4F6"/>
<path d="M5.49119 26.9533C7.98354 26.3816 10.4651 27.0532 12.3126 28.5711C11.2737 30.751 9.31099 32.4438 6.81728 33.0169C4.32764 33.5885 1.84613 32.917 -0.00146484 31.399C1.03747 29.2191 3.00019 27.5263 5.48983 26.9546L5.49119 26.9533Z" fill="#D8DF50"/>
<path d="M13.2877 36.3151C12.456 37.8109 11.0378 38.7502 9.49771 38.9986C8.92204 37.5153 8.98705 35.7864 9.82009 34.2906C10.6518 32.7962 12.07 31.8569 13.6087 31.6085C14.1844 33.0918 14.1194 34.8207 13.2877 36.3151Z" fill="#D8DF50"/>
<path d="M80.8781 11.0338C78.6269 12.2715 76.0614 12.309 73.8833 11.3557C74.31 8.96915 75.758 6.79763 78.0079 5.55993C80.2551 4.32362 82.8219 4.28616 85 5.23941C84.5733 7.626 83.1253 9.79752 80.8781 11.0338Z" fill="#D8DF50"/>
<path d="M70.9102 4.16405C71.3193 2.49344 72.4381 1.19885 73.855 0.53421C74.7991 1.80382 75.1905 3.48693 74.7815 5.15754C74.3738 6.82538 73.2549 8.12136 71.8367 8.78461C70.8926 7.515 70.5011 5.83189 70.9102 4.16405Z" fill="#D8DF50"/>
</g>
<defs>
<clipPath id="clip0_142_274">
<rect width="85" height="39" fill="white"/>
</clipPath>
</defs>
</svg>
