<svg width="16" height="16" viewBox="0 0 16 16" fill="none" xmlns="http://www.w3.org/2000/svg">
<g clip-path="url(#clip0_45_595)">
<path d="M8.00766 8C8.79879 8 9.57215 7.76541 10.2299 7.32588C10.8877 6.88636 11.4004 6.26164 11.7032 5.53074C12.0059 4.79983 12.0851 3.99557 11.9308 3.21964C11.7765 2.44372 11.3955 1.73098 10.8361 1.17157C10.2767 0.612165 9.56395 0.231202 8.78802 0.0768607C8.0121 -0.0774802 7.20783 0.00173314 6.47693 0.304484C5.74602 0.607234 5.12131 1.11992 4.68178 1.77772C4.24226 2.43552 4.00766 3.20888 4.00766 4C4.01083 5.0599 4.43327 6.07547 5.18273 6.82493C5.93219 7.57439 6.94777 7.99684 8.00766 8ZM8.00766 1.33334C8.53508 1.33334 9.05065 1.48973 9.48918 1.78275C9.92771 2.07577 10.2695 2.49224 10.4713 2.97951C10.6732 3.46678 10.726 4.00296 10.6231 4.52024C10.5202 5.03753 10.2662 5.51268 9.89328 5.88562C9.52034 6.25856 9.04518 6.51254 8.5279 6.61543C8.01062 6.71832 7.47444 6.66552 6.98717 6.46368C6.4999 6.26185 6.08343 5.92005 5.79041 5.48152C5.49739 5.04299 5.34099 4.52742 5.34099 4C5.3431 3.29341 5.62473 2.61636 6.12437 2.11672C6.62401 1.61707 7.30107 1.33545 8.00766 1.33334ZM11.341 9.33334H4.67433C4.06043 9.32953 3.45188 9.44764 2.88398 9.68081C2.31607 9.91399 1.80011 10.2576 1.36601 10.6917C0.93191 11.1258 0.58831 11.6417 0.355136 12.2097C0.121962 12.7776 0.00385413 13.3861 0.0076604 14C0.00277551 14.264 0.0511696 14.5263 0.14995 14.7711C0.24873 15.016 0.395867 15.2384 0.582566 15.4251C0.769266 15.6118 0.991693 15.7589 1.23655 15.8577C1.48141 15.9565 1.74367 16.0049 2.00766 16H14.0077C14.2716 16.0049 14.5339 15.9565 14.7788 15.8577C15.0236 15.7589 15.2461 15.6118 15.4328 15.4251C15.6195 15.2384 15.7666 15.016 15.8654 14.7711C15.9642 14.5263 16.0125 14.264 16.0077 14C16.0115 13.3861 15.8934 12.7776 15.6602 12.2097C15.427 11.6417 15.0834 11.1258 14.6493 10.6917C14.2152 10.2576 13.6992 9.91399 13.1313 9.68081C12.5634 9.44764 11.9549 9.32953 11.341 9.33334ZM14.0077 14.6667H2.00766C1.91872 14.672 1.82965 14.6584 1.74635 14.6268C1.66304 14.5952 1.58739 14.5463 1.52438 14.4833C1.46138 14.4203 1.41245 14.3446 1.38084 14.2613C1.34923 14.178 1.33565 14.0889 1.34099 14C1.33663 13.561 1.41987 13.1256 1.58583 12.7192C1.7518 12.3129 1.99717 11.9437 2.30757 11.6332C2.61798 11.3228 2.98718 11.0775 3.39357 10.9115C3.79996 10.7455 4.23537 10.6623 4.67433 10.6667H11.341C11.7799 10.6623 12.2154 10.7455 12.6218 10.9115C13.0281 11.0775 13.3973 11.3228 13.7077 11.6332C14.0182 11.9437 14.2635 12.3129 14.4295 12.7192C14.5955 13.1256 14.6787 13.561 14.6743 14C14.6797 14.0889 14.6661 14.178 14.6345 14.2613C14.6029 14.3446 14.5539 14.4203 14.4909 14.4833C14.4279 14.5463 14.3523 14.5952 14.269 14.6268C14.1857 14.6584 14.0966 14.672 14.0077 14.6667Z" fill="white"/>
</g>
<defs>
<clipPath id="clip0_45_595">
<rect width="16" height="16" fill="white" transform="translate(0.0078125)"/>
</clipPath>
</defs>
</svg>
