<svg width="17" height="14" viewBox="0 0 17 14" fill="none" xmlns="http://www.w3.org/2000/svg">
<path fill-rule="evenodd" clip-rule="evenodd" d="M10.6704 0.647057C10.8689 0.647057 11.0566 0.739402 11.1806 0.898035L12.5527 2.65325H14.9051C15.9878 2.65325 16.8655 3.55146 16.8655 4.65945V11.3468C16.8655 12.4548 15.9878 13.353 14.9051 13.353H2.48964C1.40697 13.353 0.529297 12.4548 0.529297 11.3468V4.65945C0.529297 3.55146 1.40697 2.65325 2.48964 2.65325H4.84139L6.21412 0.898035C6.33813 0.739402 6.52587 0.647057 6.72438 0.647057H10.6704ZM8.69857 3.9908C6.62346 3.9908 4.94125 5.71236 4.94125 7.83601C4.94125 9.95966 6.62346 11.6812 8.69857 11.6812C10.7737 11.6812 12.4559 9.95966 12.4559 7.83601C12.4559 5.71236 10.7737 3.9908 8.69857 3.9908ZM8.69598 4.99397C10.2298 4.99397 11.4731 6.26643 11.4731 7.83608C11.4731 9.40574 10.2298 10.6782 8.69598 10.6782C7.1622 10.6782 5.91883 9.40574 5.91883 7.83608C5.91883 6.26643 7.1622 4.99397 8.69598 4.99397ZM13.2715 3.82346C13.0008 3.82346 12.7814 4.04801 12.7814 4.32501C12.7814 4.602 13.0008 4.82655 13.2715 4.82655C13.5422 4.82655 13.7616 4.602 13.7616 4.32501C13.7616 4.04801 13.5422 3.82346 13.2715 3.82346ZM3.32482 1.85715C3.50527 1.85715 3.65155 2.00685 3.65155 2.19151V2.52588H2.34465V2.19151C2.34465 2.00685 2.49093 1.85715 2.67138 1.85715H3.32482Z" fill="#717171"/>
</svg>
