<svg width="445" height="859" viewBox="0 0 445 859" fill="none" xmlns="http://www.w3.org/2000/svg">
<g clip-path="url(#clip0_5579_1171)">
<path d="M376.21 344.856C394.565 345.642 410.905 354.168 421.487 366.86C410.822 378.645 394.431 385.772 376.077 384.987C357.744 384.203 341.405 375.676 330.823 362.983C341.486 351.199 357.877 344.073 376.21 344.856Z" fill="#014A3D"/>
<path d="M416.269 416.865C408.113 424.742 396.716 428.123 385.546 426.986C383.816 416.729 386.965 406.063 395.12 398.186C403.265 390.319 414.662 386.938 425.832 388.077C427.56 398.333 424.413 409 416.267 416.865L416.269 416.865Z" fill="#014A3D"/>
</g>
<g clip-path="url(#clip1_5579_1171)">
<path d="M46.4515 510.994C31.4978 507.441 19.81 497.348 13.7285 484.464C24.9571 475.692 39.9351 471.936 54.8875 475.489C69.8233 479.038 81.5104 489.131 87.5919 502.016C76.3654 510.787 61.3874 514.543 46.4515 510.994Z" fill="#014A3D"/>
<path d="M28.4016 441.01C36.7524 435.307 46.8399 434.089 55.8038 436.835C55.1 446.184 50.294 455.136 41.9432 460.839C33.6027 466.535 23.5152 467.753 14.552 465.005C15.2572 455.657 20.0618 446.705 28.403 441.011L28.4016 441.01Z" fill="#014A3D"/>
</g>
<g clip-path="url(#clip2_5579_1171)">
<path d="M291.451 319.451C284.206 314.575 279.293 307.34 277.519 300.003C284.133 298.311 292.14 299.771 299.385 304.647C306.622 309.517 311.535 316.752 313.308 324.089C306.696 325.782 298.688 324.321 291.451 319.451Z" fill="#014A3D"/>
<path d="M289.442 282.819C294.277 281.944 299.535 283.542 303.815 286.753C302.498 290.977 299.135 294.134 294.3 295.009C289.471 295.883 284.213 294.285 279.933 291.073C281.251 286.85 284.614 283.692 289.443 282.82L289.442 282.819Z" fill="#014A3D"/>
</g>
<g clip-path="url(#clip3_5579_1171)">
<path d="M223.588 227.696C211.945 219.86 204.05 208.234 201.2 196.444C211.828 193.725 224.695 196.072 236.337 203.907C247.967 211.733 255.861 223.359 258.711 235.149C248.085 237.869 235.217 235.522 223.588 227.696Z" fill="#014A3D"/>
<path d="M220.36 168.83C228.129 167.425 236.579 169.992 243.456 175.153C241.34 181.941 235.935 187.014 228.166 188.419C220.407 189.823 211.957 187.256 205.08 182.095C207.197 175.308 212.601 170.234 220.361 168.831L220.36 168.83Z" fill="#014A3D"/>
</g>
<g clip-path="url(#clip4_5579_1171)">
<path d="M66.133 373.801C69.9282 362.372 78.6039 353.938 89.0762 350.071C95.1563 359.434 97.0653 371.382 93.2708 382.811C89.481 394.227 80.8041 402.66 70.3318 406.527C64.2522 397.165 62.3432 385.217 66.133 373.801Z" fill="#014A3D"/>
<path d="M121.993 364.491C125.874 371.399 126.135 379.356 123.38 386.166C116.13 384.978 109.471 380.615 105.59 373.707C101.713 366.808 101.452 358.851 104.208 352.042C111.457 353.231 118.117 357.593 121.992 364.493L121.993 364.491Z" fill="#014A3D"/>
</g>
<g clip-path="url(#clip5_5579_1171)">
<path d="M93.5389 291.372C82.5685 286.403 75.0877 276.893 72.3364 266.074C82.2843 261.006 94.3662 260.356 105.336 265.325C116.293 270.287 123.773 279.798 126.524 290.617C116.578 295.685 104.496 296.334 93.5389 291.372Z" fill="#014A3D"/>
<path d="M90.1188 234.845C97.3945 231.707 105.335 232.279 111.819 235.731C109.88 242.817 104.845 248.983 97.5697 252.121C90.3029 255.256 82.3621 254.684 75.8788 251.231C77.8189 244.146 82.8528 237.978 90.1198 234.846L90.1188 234.845Z" fill="#014A3D"/>
</g>
<g clip-path="url(#clip6_5579_1171)">
<path d="M363.133 292.801C366.928 281.372 375.604 272.938 386.076 269.071C392.157 278.434 394.066 290.382 390.271 301.811C386.481 313.227 377.804 321.66 367.332 325.527C361.252 316.165 359.343 304.217 363.133 292.801Z" fill="#014A3D"/>
<path d="M418.993 283.491C422.875 290.399 423.136 298.356 420.38 305.166C413.131 303.978 406.472 299.615 402.59 292.707C398.714 285.808 398.452 277.851 401.209 271.042C408.458 272.231 415.118 276.593 418.993 283.493L418.993 283.491Z" fill="#014A3D"/>
</g>
<g clip-path="url(#clip7_5579_1171)">
<path d="M296.002 595.882C284.298 598.72 272.548 595.832 263.719 589C268.438 578.882 277.559 570.932 289.262 568.093C300.951 565.258 312.701 568.147 321.53 574.979C316.812 585.096 307.692 593.046 296.002 595.882Z" fill="#014A3D"/>
<path d="M258.506 553.443C262.307 546.491 268.917 542.053 276.151 540.781C278.986 547.559 278.815 555.518 275.013 562.47C271.217 569.414 264.607 573.852 257.372 575.122C254.539 568.345 254.709 560.386 258.507 553.443L258.506 553.443Z" fill="#014A3D"/>
</g>
<g clip-path="url(#clip8_5579_1171)">
<path d="M144.798 543.217C145.969 527.891 154.108 514.768 165.882 506.746C176.303 516.464 182.356 530.67 181.185 545.994C180.017 561.302 171.876 574.424 160.102 582.446C149.682 572.73 143.629 558.524 144.798 543.217Z" fill="#014A3D"/>
<path d="M211.097 514.441C218.036 521.797 220.817 531.57 219.507 540.853C210.163 541.62 200.569 538.274 193.63 530.918C186.699 523.571 183.919 513.798 185.23 504.515C194.574 503.75 204.168 507.095 211.096 514.442L211.097 514.441Z" fill="#014A3D"/>
</g>
<g clip-path="url(#clip9_5579_1171)">
<path d="M40.4237 671.102C35.35 646.594 39.4403 621.88 49.9752 603.219C66.3846 612.928 79.5236 631.916 84.5973 656.422C89.6661 680.9 85.5738 705.615 75.039 724.275C58.6316 714.569 45.4925 695.581 40.4237 671.102Z" fill="#014A3D"/>
<path d="M106.652 591.594C117.952 599.438 125.356 613.223 127.719 628.382C117 634.461 104.252 634.256 92.952 626.411C81.6656 618.577 74.2619 604.791 71.9006 589.632C82.6201 583.556 95.3677 583.759 106.652 591.596L106.652 591.594Z" fill="#014A3D"/>
</g>
<g clip-path="url(#clip10_5579_1171)">
<path d="M348.738 498.961C350.39 487.35 358.058 478.35 368.701 473.745C377.433 482.579 382.156 494.283 380.504 505.893C378.855 517.489 371.186 526.489 360.542 531.094C351.811 522.261 347.088 510.557 348.738 498.961Z" fill="#014A3D"/>
<path d="M408 485.615C413.779 492.177 415.816 500.046 414.288 507C406.071 506.356 397.802 502.522 392.023 495.96C386.251 489.406 384.215 481.537 385.743 474.584C393.961 475.229 402.229 479.062 408 485.616L408 485.615Z" fill="#014A3D"/>
</g>
<g clip-path="url(#clip11_5579_1171)">
<path d="M295.055 651.346C300.453 662.112 300.282 674.21 295.612 684.35C284.691 682.028 274.893 674.93 269.495 664.165C264.102 653.413 264.275 641.314 268.945 631.175C279.864 633.496 289.662 640.594 295.055 651.346Z" fill="#014A3D"/>
<path d="M262.139 697.428C254.51 695.288 248.699 689.847 245.832 683.083C251.798 678.797 259.592 677.173 267.221 679.313C274.841 681.451 280.652 686.892 283.517 693.656C277.551 697.941 269.758 699.566 262.139 697.427L262.139 697.428Z" fill="#014A3D"/>
</g>
<g clip-path="url(#clip12_5579_1171)">
<path d="M430.055 806.346C435.453 817.112 435.282 829.21 430.612 839.35C419.691 837.028 409.893 829.93 404.495 819.165C399.102 808.413 399.275 796.314 403.945 786.175C414.864 788.496 424.662 795.594 430.055 806.346Z" fill="#014A3D"/>
<path d="M397.139 852.428C389.51 850.288 383.699 844.847 380.832 838.083C386.798 833.797 394.592 832.173 402.221 834.313C409.841 836.451 415.652 841.892 418.517 848.656C412.551 852.941 404.758 854.566 397.139 852.427L397.139 852.428Z" fill="#014A3D"/>
</g>
<g clip-path="url(#clip13_5579_1171)">
<path d="M310.789 755.045C310.09 741.437 315.436 728.848 324.366 720.261C334.107 727.425 340.701 739.103 341.4 752.71C342.099 766.302 336.752 778.89 327.821 787.478C318.081 780.314 311.488 768.637 310.789 755.045Z" fill="#014A3D"/>
<path d="M362.867 721.084C369.45 726.632 372.834 734.847 372.757 743.168C365.058 745.068 356.702 743.389 350.118 737.841C343.543 732.301 340.16 724.086 340.238 715.764C347.937 713.866 356.293 715.544 362.867 721.086L362.867 721.084Z" fill="#014A3D"/>
</g>
<g clip-path="url(#clip14_5579_1171)">
<path d="M189.06 729.146C173.864 731.452 159.247 726.473 148.781 716.805C155.907 704.466 168.387 695.373 183.581 693.066C198.759 690.761 213.376 695.741 223.841 705.409C216.718 717.747 204.238 726.841 189.06 729.146Z" fill="#014A3D"/>
<path d="M146.108 671.019C151.714 662.603 160.611 657.695 169.951 656.883C172.801 665.815 171.698 675.915 166.092 684.331C160.492 692.737 151.596 697.645 142.256 698.455C139.408 689.523 140.509 679.423 146.11 671.019L146.108 671.019Z" fill="#014A3D"/>
</g>
<g clip-path="url(#clip15_5579_1171)">
<path d="M281.275 832.608C273.158 833.84 265.349 831.18 259.759 826.016C263.565 819.424 270.232 814.567 278.349 813.334C286.456 812.103 294.265 814.764 299.855 819.928C296.05 826.519 289.383 831.376 281.275 832.608Z" fill="#014A3D"/>
<path d="M258.331 801.557C261.326 797.061 266.078 794.44 271.068 794.006C272.59 798.777 272.001 804.173 269.006 808.669C266.015 813.159 261.262 815.78 256.273 816.213C254.752 811.442 255.34 806.046 258.332 801.557L258.331 801.557Z" fill="#014A3D"/>
</g>
<g clip-path="url(#clip16_5579_1171)">
<path d="M103.903 772.932C124.827 769.15 145.654 773.591 161.158 783.622C152.443 798.032 135.96 809.219 115.039 813.001C94.141 816.78 73.3141 812.337 57.8093 802.306C66.5221 787.897 83.0055 776.71 103.903 772.932Z" fill="#014A3D"/>
<path d="M169.335 834.808C162.352 844.695 150.448 850.902 137.529 852.546C132.694 842.744 133.246 831.32 140.229 821.433C147.203 811.558 159.107 805.35 172.026 803.708C176.859 813.51 176.309 824.934 169.333 834.808H169.335Z" fill="#014A3D"/>
</g>
<g clip-path="url(#clip17_5579_1171)">
<path d="M408.431 677.792C396.746 678.794 386.252 673.347 379.37 664.012C386.014 653.516 396.355 646.282 408.039 645.28C419.709 644.279 430.203 649.727 437.085 659.061C430.442 669.556 420.101 676.79 408.431 677.792Z" fill="#014A3D"/>
<path d="M382.096 623.05C387.19 615.943 394.399 612.189 401.518 612.112C402.739 620.264 400.863 629.183 395.77 636.29C390.682 643.389 383.473 647.143 376.354 647.218C375.134 639.066 377.008 630.147 382.097 623.05L382.096 623.05Z" fill="#014A3D"/>
</g>
<g clip-path="url(#clip18_5579_1171)">
<path d="M206.531 359.148C187.44 363.328 168.803 356.986 155.23 343.658C163.755 325.49 179.162 311.692 198.251 307.512C217.319 303.336 235.955 309.681 249.528 323.009C241.005 341.174 225.598 354.972 206.531 359.148Z" fill="#014A3D"/>
<path d="M150.124 277.888C156.881 265.455 167.923 257.886 179.68 256.19C183.614 268.888 182.605 283.492 175.848 295.926C169.099 308.344 158.057 315.913 146.3 317.607C142.368 304.909 143.375 290.305 150.126 277.888L150.124 277.888Z" fill="#014A3D"/>
</g>
<g clip-path="url(#clip19_5579_1171)">
<path d="M361.21 121.856C379.565 122.642 395.905 131.168 406.487 143.86C395.822 155.645 379.431 162.772 361.077 161.987C342.744 161.203 326.405 152.676 315.823 139.983C326.486 128.199 342.877 121.073 361.21 121.856Z" fill="#014A3D"/>
<path d="M401.269 193.865C393.113 201.742 381.716 205.123 370.546 203.986C368.816 193.729 371.965 183.063 380.12 175.186C388.265 167.319 399.662 163.938 410.832 165.077C412.56 175.333 409.413 186 401.267 193.865L401.269 193.865Z" fill="#014A3D"/>
</g>
<g clip-path="url(#clip20_5579_1171)">
<path d="M276.451 96.4513C269.206 91.5748 264.293 84.3401 262.519 77.0033C269.133 75.3108 277.14 76.7712 284.385 81.6471C291.622 86.5171 296.535 93.7524 298.308 101.089C291.696 102.782 283.688 101.321 276.451 96.4513Z" fill="#014A3D"/>
<path d="M274.442 59.8189C279.277 58.9441 284.535 60.5419 288.815 63.7532C287.498 67.9774 284.135 71.1344 279.3 72.0091C274.471 72.8829 269.213 71.2851 264.933 68.0733C266.251 63.8497 269.614 60.6921 274.443 59.8195L274.442 59.8189Z" fill="#014A3D"/>
</g>
<g clip-path="url(#clip21_5579_1171)">
<path d="M51.133 150.801C54.9282 139.372 63.6039 130.938 74.0762 127.071C80.1563 136.434 82.0653 148.382 78.2708 159.811C74.481 171.227 65.8041 179.66 55.3318 183.527C49.2522 174.165 47.3432 162.217 51.133 150.801Z" fill="#014A3D"/>
<path d="M106.993 141.491C110.874 148.399 111.135 156.356 108.38 163.166C101.13 161.978 94.4712 157.615 90.5898 150.707C86.7132 143.808 86.4518 135.851 89.2084 129.042C96.4572 130.231 103.117 134.593 106.992 141.493L106.993 141.491Z" fill="#014A3D"/>
</g>
<g clip-path="url(#clip22_5579_1171)">
<path d="M78.5389 68.3722C67.5685 63.403 60.0877 53.8932 57.3364 43.074C67.2843 38.0061 79.3662 37.3564 90.3357 42.3248C101.293 47.2871 108.773 56.7979 111.524 67.6171C101.578 72.6848 89.4962 73.3345 78.5389 68.3722Z" fill="#014A3D"/>
<path d="M75.1188 11.8451C82.3945 8.70709 90.3353 9.27884 96.8193 12.7311C94.8802 19.8167 89.8453 25.9834 82.5697 29.1215C75.3029 32.2557 67.3621 31.6839 60.8788 28.2307C62.8189 21.1459 67.8528 14.9784 75.1198 11.8459L75.1188 11.8451Z" fill="#014A3D"/>
</g>
<g clip-path="url(#clip23_5579_1171)">
<path d="M348.133 69.8013C351.928 58.3716 360.604 49.9378 371.076 46.0706C377.157 55.4343 379.066 67.3821 375.271 78.8108C371.481 90.2268 362.804 98.6601 352.332 102.527C346.252 93.1652 344.343 81.2174 348.133 69.8013Z" fill="#014A3D"/>
<path d="M403.993 60.4915C407.875 67.3993 408.136 75.3563 405.38 82.1657C398.131 80.9779 391.472 76.6152 387.59 69.7074C383.714 62.8081 383.452 54.851 386.209 48.0423C393.458 49.2311 400.118 53.5928 403.993 60.4925L403.993 60.4915Z" fill="#014A3D"/>
</g>
<g clip-path="url(#clip24_5579_1171)">
<path d="M191.531 136.148C172.44 140.328 153.803 133.985 140.23 120.658C148.755 102.49 164.162 88.6922 183.251 84.5122C202.319 80.336 220.955 86.6806 234.528 100.008C226.005 118.174 210.598 131.972 191.531 136.148Z" fill="#014A3D"/>
<path d="M135.124 54.8881C141.881 42.4544 152.923 34.8859 164.68 33.1893C168.614 45.8877 167.605 60.4918 160.848 72.9256C154.099 85.3441 143.057 92.9126 131.3 94.607C127.368 81.9086 128.375 67.3044 135.126 54.8882L135.124 54.8881Z" fill="#014A3D"/>
</g>
<defs>
<clipPath id="clip0_5579_1171">
<rect width="100.985" height="78.7326" fill="white" transform="translate(338.047 334) rotate(14)"/>
</clipPath>
<clipPath id="clip1_5579_1171">
<rect width="84.1441" height="71.9424" fill="white" transform="translate(75.6284 526.548) rotate(-154)"/>
</clipPath>
<clipPath id="clip2_5579_1171">
<rect width="48.2453" height="32.6494" fill="white" transform="translate(304.705 333) rotate(-136)"/>
</clipPath>
<clipPath id="clip3_5579_1171">
<rect width="77.5267" height="52.4652" fill="white" transform="translate(244.885 249.468) rotate(-136)"/>
</clipPath>
<clipPath id="clip4_5579_1171">
<rect width="65.9307" height="56.3702" fill="white" transform="translate(52 395.514) rotate(-59)"/>
</clipPath>
<clipPath id="clip5_5579_1171">
<rect width="65.9307" height="56.3702" fill="white" transform="translate(113.655 307.697) rotate(-143)"/>
</clipPath>
<clipPath id="clip6_5579_1171">
<rect width="65.9307" height="56.3702" fill="white" transform="translate(349 314.514) rotate(-59)"/>
</clipPath>
<clipPath id="clip7_5579_1171">
<rect width="65.9307" height="56.3702" fill="white" transform="translate(321.904 596.362) rotate(179)"/>
</clipPath>
<clipPath id="clip8_5579_1171">
<rect width="84.1441" height="71.9424" fill="white" transform="translate(134 574.467) rotate(-73)"/>
</clipPath>
<clipPath id="clip9_5579_1171">
<rect width="138.408" height="90.2246" fill="white" transform="translate(40.8303 725.472) rotate(-92)"/>
</clipPath>
<clipPath id="clip10_5579_1171">
<rect width="63.5814" height="64.5479" fill="white" transform="translate(338 521.527) rotate(-67)"/>
</clipPath>
<clipPath id="clip11_5579_1171">
<rect width="65.9307" height="56.3702" fill="white" transform="translate(289.696 626) rotate(76)"/>
</clipPath>
<clipPath id="clip12_5579_1171">
<rect width="65.9307" height="56.3702" fill="white" transform="translate(424.696 781) rotate(76)"/>
</clipPath>
<clipPath id="clip13_5579_1171">
<rect width="74.7926" height="60.3444" fill="white" transform="translate(305.209 783.898) rotate(-81)"/>
</clipPath>
<clipPath id="clip14_5579_1171">
<rect width="84.1441" height="71.9424" fill="white" transform="translate(221.939 732.637) rotate(-176)"/>
</clipPath>
<clipPath id="clip15_5579_1171">
<rect width="44.9486" height="38.4306" fill="white" transform="translate(298.839 834.472) rotate(-176)"/>
</clipPath>
<clipPath id="clip16_5579_1171">
<rect width="117.386" height="80.9526" fill="white" transform="translate(57.8071 771.594)"/>
</clipPath>
<clipPath id="clip17_5579_1171">
<rect width="63.5814" height="64.5479" fill="white" transform="translate(432.833 683.178) rotate(-170)"/>
</clipPath>
<clipPath id="clip18_5579_1171">
<rect width="106.222" height="103.672" fill="white" transform="translate(248.158 362.316) rotate(-178)"/>
</clipPath>
<clipPath id="clip19_5579_1171">
<rect width="100.985" height="78.7326" fill="white" transform="translate(323.047 111) rotate(14)"/>
</clipPath>
<clipPath id="clip20_5579_1171">
<rect width="48.2453" height="32.6494" fill="white" transform="translate(289.705 110) rotate(-136)"/>
</clipPath>
<clipPath id="clip21_5579_1171">
<rect width="65.9307" height="56.3702" fill="white" transform="translate(37 172.514) rotate(-59)"/>
</clipPath>
<clipPath id="clip22_5579_1171">
<rect width="65.9307" height="56.3702" fill="white" transform="translate(98.6548 84.6974) rotate(-143)"/>
</clipPath>
<clipPath id="clip23_5579_1171">
<rect width="65.9307" height="56.3702" fill="white" transform="translate(334 91.5137) rotate(-59)"/>
</clipPath>
<clipPath id="clip24_5579_1171">
<rect width="106.222" height="103.672" fill="white" transform="translate(233.158 139.316) rotate(-178)"/>
</clipPath>
</defs>
</svg>
