<svg width="239" height="107" viewBox="0 0 239 107" fill="none" xmlns="http://www.w3.org/2000/svg">
<g clip-path="url(#clip0_5579_1299)">
<path d="M94.3478 79.1602C94.0431 79.6018 93.3499 79.9939 92.2644 80.3404C89.8955 80.9571 87.5912 80.8162 85.3556 79.9292C84.8795 79.6551 84.5253 79.3468 84.2853 79.008C84.0492 78.6653 83.9311 78.1895 83.9311 77.5728C83.794 72.2431 83.6569 66.8945 83.5198 61.5268C83.3827 56.1629 83.2456 50.8104 83.1085 45.4808C83.0399 43.2956 83.0589 41.1067 83.158 38.9177C83.2608 36.7325 83.3103 34.5436 83.3103 32.3546C83.1046 32.3546 82.9333 32.3204 82.7961 32.2518C82.659 32.5945 82.541 32.9028 82.4381 33.1731C82.3353 33.4472 82.2172 33.7556 82.0801 34.0944C80.987 37.2389 79.9244 40.3833 78.8999 43.5278C77.8754 46.6723 76.8128 49.8168 75.7197 52.9613C75.4455 53.7836 75.0532 54.484 74.539 55.0627C74.0248 55.6451 73.3241 56.003 72.4366 56.14C70.3838 56.3456 68.3652 56.3456 66.3847 56.14C64.9488 55.9345 63.9586 54.9789 63.4101 53.2696C62.1114 48.9641 60.7936 44.708 59.4606 40.5052C58.1276 36.3024 56.7755 32.0805 55.4082 27.8435C55.4082 27.7064 55.3739 27.5694 55.3054 27.4323C55.2368 27.2953 55.134 27.0593 54.9968 26.7128C54.9283 27.0555 54.894 27.3295 54.894 27.5351L53.3553 76.7543C53.3553 77.0931 53.3706 77.4205 53.4086 77.7288C53.4429 78.0372 53.5267 78.3608 53.6638 78.7034C54.0028 79.6589 53.6981 80.447 52.7421 81.0637C52.1937 81.4025 51.5119 81.6614 50.6893 81.8327C49.8666 82.004 49.0135 82.0725 48.1222 82.0382C47.2348 82.004 46.3969 81.9012 45.6085 81.7299C44.824 81.5586 44.1879 81.2692 43.7118 80.8581C43.1634 80.5155 42.8206 80.0016 42.6873 79.3201C42.5502 78.909 42.4816 78.4826 42.4816 78.0372V76.7581C42.6188 71.0173 42.7711 65.326 42.9425 59.6842C43.1139 54.0462 43.3005 48.355 43.5062 42.6104C43.6433 37.4178 43.8299 32.2214 44.0699 27.025C44.306 21.8324 44.5307 16.636 44.7364 11.4396C44.8049 10.4841 44.8544 9.52477 44.8887 8.56924C44.923 7.61371 45.0068 6.58585 45.1477 5.49328C44.5307 5.76737 43.948 5.99198 43.4033 6.15948C42.8549 6.33079 42.3103 6.51733 41.7618 6.7229C39.3662 7.81928 37.1953 9.16692 35.2452 10.7734C33.2952 12.3799 31.7375 14.3823 30.5758 16.7731C30.233 17.4583 29.9931 18.174 29.856 18.9278C29.7189 19.6815 29.5818 20.4315 29.4447 21.1852C29.3075 22.2093 28.8962 22.8603 28.2145 23.1344C25.2742 24.4325 22.4368 24.364 19.7021 22.9288C18.3348 22.1788 18.0263 20.6409 18.7805 18.3149C19.3937 16.2629 20.3001 14.4204 21.4998 12.7796C22.6957 11.1389 24.0821 9.63517 25.6551 8.2685C31.0671 3.67359 37.2219 0.974512 44.1308 0.152226C45.5667 -0.053346 47.0177 -0.053346 48.4917 0.152226C49.9618 0.357797 51.3825 0.597631 52.7498 0.871726C53.9114 1.0773 54.9207 1.55316 55.7776 2.30692C56.6308 3.06068 57.2973 3.98195 57.7772 5.07452C59.7577 9.58568 61.6048 14.2681 63.3187 19.1219C64.4118 22.0608 65.4363 25.0188 66.3961 27.9919C67.3521 30.9651 68.3461 33.9573 69.3707 36.9648C69.5078 37.2389 69.6106 37.513 69.6792 37.7871C69.8848 37.1703 70.0715 36.6259 70.2429 36.1463C70.4142 35.6704 70.6009 35.1908 70.8065 34.7111C72.311 30.8852 73.8154 27.1087 75.3198 23.3818C76.8242 19.6587 78.3286 15.9127 79.833 12.1553C80.2444 11.1998 80.6176 10.2062 80.9604 9.18215C81.2994 8.1581 81.6421 7.1645 81.9849 6.20897C82.5295 4.22939 83.8892 3.06449 86.0602 2.72187C87.1456 2.58482 88.193 2.55056 89.2099 2.61908C90.2268 2.68761 91.2056 2.9617 92.154 3.44137C93.4413 3.98956 94.0507 4.94509 93.9821 6.31176C93.9136 10.1415 93.8603 13.9522 93.8298 17.7438C93.7955 21.5393 93.7765 25.35 93.7765 29.1759V40.4024C93.7765 44.1293 93.8107 47.8715 93.8793 51.6289C93.9479 54.5678 94.0164 57.4915 94.085 60.3961C94.1535 63.3046 94.2564 66.2244 94.3935 69.1634L94.702 76.8533C94.7705 77.9458 94.6487 78.7148 94.344 79.1602H94.3478Z" fill="#014A3D"/>
<path d="M101.188 32.9676C99.7408 32.4194 99.0476 31.4296 99.1162 29.9944C99.1848 28.7648 99.2343 27.5504 99.2686 26.355C99.3028 25.1596 99.3219 23.9795 99.3219 22.8184C99.3219 21.6573 99.8741 20.8693 100.979 20.4581C103.603 19.5026 106.155 19.4684 108.642 20.3554C109.883 20.9035 110.504 21.8591 110.504 23.2257C110.435 23.8425 110.401 24.4554 110.401 25.0721C110.401 25.6888 110.367 26.3017 110.298 26.9184H110.192C110.192 27.4666 110.173 28.03 110.142 28.6087C110.108 29.1911 110.123 29.7545 110.192 30.2989C110.329 31.0527 110.226 31.6161 109.883 31.993C109.537 32.3699 109.091 32.6592 108.539 32.8648C106.12 33.7518 103.671 33.786 101.188 32.9676ZM110.813 41.4797C110.744 44.2131 110.71 46.9502 110.71 49.6836V74.1885C110.71 75.144 110.588 75.8635 110.348 76.3432C110.104 76.8228 109.502 77.1274 108.535 77.2644C107.568 77.47 106.585 77.6223 105.583 77.7251C104.582 77.8278 103.599 77.8088 102.632 77.6718C101.39 77.5347 100.579 77.1921 100.198 76.6477C99.817 76.0995 99.6304 75.2125 99.6304 73.9791V49.7787C99.6304 48.4806 99.6456 47.1977 99.6837 45.9338C99.718 44.6699 99.6989 43.387 99.6304 42.0888C99.6304 40.3795 100.388 39.3212 101.908 38.9101C104.464 38.1601 106.844 38.1601 109.053 38.9101C110.226 39.3212 110.813 40.1778 110.813 41.4759V41.4797Z" fill="#014A3D"/>
<path d="M151.226 69.8792C152.049 67.694 152.677 65.4365 153.123 63.1105C153.568 60.7883 153.858 58.4281 153.995 56.0373C154.334 52.7558 154.574 49.5428 154.715 46.3983C154.852 43.2538 154.989 40.0408 155.126 36.7593C155.195 35.05 155.16 33.3407 155.023 31.6352C154.886 29.926 154.749 28.2167 154.612 26.5074C154.543 25.4833 154.646 24.7143 154.92 24.2004C155.195 23.6865 155.808 23.3667 156.768 23.2258C157.727 23.0203 158.668 22.9023 159.59 22.868C160.512 22.8337 161.452 22.887 162.412 23.0241C163.574 23.1611 164.362 23.4847 164.773 23.9986C165.185 24.5126 165.455 25.3501 165.592 26.5112C166.141 30.2724 166.327 33.9955 166.156 37.6882C165.985 41.3809 165.798 45.0697 165.592 48.7624C165.455 52.1125 165.181 55.4435 164.773 58.7593C164.362 62.0751 163.676 65.3718 162.721 68.6534C162.039 71.1811 161.045 73.7432 159.746 76.3433C158.992 77.9155 157.845 79.0956 156.311 79.8798C154.772 80.6641 153.165 81.0752 151.489 81.1095C149.813 81.1437 148.187 80.8544 146.618 80.2377C145.045 79.621 143.849 78.6997 143.026 77.4701C142.066 76.1719 141.331 74.8205 140.821 73.4196C140.307 72.0186 139.846 70.5987 139.438 69.1635C139.301 68.6191 139.179 68.0861 139.08 67.576C138.977 67.0621 138.821 66.4339 138.619 65.6802C138.14 66.7042 137.728 67.6483 137.389 68.5011C137.046 69.3576 136.635 70.1913 136.159 71.0136C134.86 73.4729 133.097 75.1974 130.876 76.191C128.652 77.1808 126.207 77.3711 123.541 76.7544C120.601 76.0692 118.651 74.5312 117.695 72.1405C117.215 70.9108 116.788 69.6622 116.411 68.3983C116.034 67.1344 115.779 65.8515 115.642 64.5533C115.231 61.0662 114.975 57.5639 114.873 54.0425C114.77 50.5212 114.888 47.0188 115.231 43.5317C115.436 40.7299 115.642 37.9775 115.844 35.2784C116.049 32.5793 116.289 29.827 116.564 27.0251C116.701 25.6584 117.043 24.7029 117.592 24.1547C118.137 23.6103 119.096 23.2677 120.464 23.1307C121.42 22.9936 122.36 22.9936 123.286 23.1307C124.208 23.2677 125.148 23.439 126.108 23.6446C127.338 23.8502 127.852 24.7714 127.647 26.4122C126.961 31.1974 126.466 35.9675 126.161 40.7147C125.853 45.4656 125.765 50.2699 125.902 55.1237C125.971 56.833 126.074 58.5232 126.211 60.1983C126.348 61.8733 126.485 63.5674 126.622 65.2728C126.965 65.2728 127.201 65.3071 127.342 65.3756C127.548 64.5572 127.769 63.7691 128.009 63.0192C128.248 62.2692 128.435 61.4812 128.572 60.6589C129.254 56.5589 129.92 52.4893 130.572 48.4579C131.223 44.4264 131.89 40.3568 132.571 36.2568C132.708 35.4345 132.861 34.6008 133.032 33.7443C133.204 32.8915 133.356 32.054 133.493 31.2317C133.767 29.5909 134.792 28.6012 136.57 28.2585C137.801 28.053 139.099 27.9502 140.467 27.9502C142.245 28.0872 143.51 28.4793 144.264 29.1303C145.014 29.7813 145.494 30.9919 145.7 32.7697C146.18 36.8697 146.621 40.9735 147.033 45.0735C147.444 49.1735 147.92 53.2774 148.469 57.3774C148.811 59.4978 149.15 61.5802 149.493 63.6321C149.836 65.684 150.175 67.7702 150.518 69.8868H151.237L151.226 69.8792Z" fill="#014A3D"/>
<path d="M181.49 57.164C181.421 60.4455 181.505 63.6242 181.745 66.7002C181.985 69.7762 182.99 72.7836 184.773 75.7225C184.978 75.1743 185.214 74.6109 185.492 74.0323C185.767 73.4498 185.934 72.8521 186.007 72.2392C186.212 71.0781 186.349 69.9513 186.418 68.8549C186.486 67.7623 186.521 66.6317 186.521 65.4706C186.521 64.1724 187.035 63.354 188.059 63.0113C190.524 62.0558 193.018 62.0558 195.547 63.0113C197.052 63.5595 197.733 64.5836 197.596 66.0873C197.459 67.454 197.322 68.8549 197.185 70.2939C197.048 71.7291 196.774 73.13 196.362 74.4967C194.447 80.9227 189.83 83.6903 182.514 82.8033C177.315 82.1866 173.895 79.3505 172.257 74.2911C171.572 72.3115 171.13 70.3091 170.924 68.2915C170.719 66.2738 170.547 64.241 170.41 62.1891C170.273 58.4317 170.391 54.7047 170.768 51.0121C171.141 47.3194 171.911 43.6648 173.076 40.0406C173.488 38.6054 174.032 37.2045 174.718 35.8378C175.399 34.4712 176.119 33.1387 176.873 31.8368C178.515 29.3775 180.514 27.8205 182.872 27.1696C185.233 26.5224 187.781 26.4691 190.516 27.0173C193.251 27.4969 195.475 28.5553 197.185 30.196C198.895 31.8368 200.125 33.9877 200.879 36.6563C201.767 39.6637 201.664 42.8425 200.571 46.1925C199.546 49.4741 197.886 51.9714 195.597 53.6769C193.304 55.3862 190.52 56.4445 187.237 56.8556C186.349 56.9927 185.443 57.0612 184.517 57.0612C183.592 57.0612 182.586 57.0954 181.493 57.164H181.49ZM187.644 32.9636C185.523 35.9025 184.121 38.91 183.436 41.9859C182.754 45.0619 182.206 48.2064 181.794 51.4194C182.819 51.9676 183.759 52.1199 184.616 51.88C185.47 51.6402 186.17 51.1453 186.719 50.3915C187.336 49.6416 187.899 48.8535 188.41 48.0351C188.924 47.2128 189.351 46.3258 189.69 45.3664C190.444 43.2498 190.68 41.1636 190.409 39.1117C190.135 37.0598 189.213 35.0117 187.64 32.9598L187.644 32.9636Z" fill="#014A3D"/>
<path d="M15.4403 73.9485C22.4482 72.38 29.4256 74.2226 34.6206 78.3873C31.6994 84.3679 26.1806 89.0123 19.1689 90.5845C12.1686 92.153 5.19121 90.3104 -0.00378418 86.1457C2.91745 80.1651 8.43617 75.5207 15.4365 73.9523L15.4403 73.9485Z" fill="#014A3D"/>
<path d="M37.3628 99.6334C35.0243 103.737 31.0366 106.314 26.7062 106.996C25.0875 102.926 25.2704 98.183 27.6127 94.0792C29.9512 89.9791 33.9388 87.4019 38.2655 86.7205C39.8841 90.79 39.7013 95.5334 37.3628 99.6334Z" fill="#014A3D"/>
<path d="M227.41 30.2723C221.08 33.668 213.867 33.7708 207.742 31.1555C208.942 24.6076 213.014 18.6499 219.34 15.2541C225.658 11.8622 232.876 11.7594 239 14.3748C237.8 20.9226 233.729 26.8804 227.41 30.2723Z" fill="#014A3D"/>
<path d="M199.383 11.4244C200.533 6.84089 203.679 3.28907 207.662 1.46558C210.317 4.94887 211.418 9.56662 210.268 14.1501C209.121 18.726 205.975 22.2816 201.988 24.1013C199.333 20.618 198.232 16.0002 199.383 11.4244Z" fill="#014A3D"/>
</g>
<defs>
<clipPath id="clip0_5579_1299">
<rect width="239" height="107" fill="white"/>
</clipPath>
</defs>
</svg>
