<svg width="445" height="636" viewBox="0 0 445 636" fill="none" xmlns="http://www.w3.org/2000/svg">
<g clip-path="url(#clip0_5000_944)">
<path d="M204.348 253.16C204.043 253.602 203.35 253.994 202.264 254.34C199.895 254.957 197.591 254.816 195.355 253.929C194.879 253.655 194.525 253.347 194.285 253.008C194.049 252.665 193.931 252.189 193.931 251.573C193.794 246.243 193.657 240.894 193.52 235.527C193.382 230.163 193.245 224.81 193.108 219.481C193.04 217.296 193.059 215.107 193.158 212.918C193.261 210.733 193.31 208.544 193.31 206.355C193.104 206.355 192.933 206.32 192.796 206.252C192.659 206.594 192.541 206.903 192.438 207.173C192.335 207.447 192.217 207.756 192.08 208.094C190.987 211.239 189.924 214.383 188.9 217.528C187.875 220.672 186.813 223.817 185.719 226.961C185.445 227.784 185.053 228.484 184.539 229.063C184.025 229.645 183.324 230.003 182.436 230.14C180.384 230.346 178.365 230.346 176.384 230.14C174.949 229.934 173.958 228.979 173.41 227.27C172.111 222.964 170.793 218.708 169.46 214.505C168.127 210.302 166.775 206.081 165.408 201.843C165.408 201.706 165.374 201.569 165.305 201.432C165.237 201.295 165.134 201.059 164.997 200.713C164.928 201.055 164.894 201.33 164.894 201.535L163.355 250.754C163.355 251.093 163.37 251.42 163.408 251.729C163.443 252.037 163.526 252.361 163.664 252.703C164.003 253.659 163.698 254.447 162.742 255.064C162.193 255.402 161.512 255.661 160.689 255.833C159.866 256.004 159.013 256.073 158.122 256.038C157.235 256.004 156.397 255.901 155.608 255.73C154.824 255.559 154.188 255.269 153.712 254.858C153.163 254.515 152.82 254.002 152.687 253.32C152.55 252.909 152.481 252.483 152.481 252.037V250.758C152.619 245.017 152.771 239.326 152.942 233.684C153.114 228.046 153.3 222.355 153.506 216.61C153.643 211.418 153.83 206.221 154.07 201.025C154.306 195.832 154.53 190.636 154.736 185.44C154.805 184.484 154.854 183.525 154.888 182.569C154.923 181.614 155.007 180.586 155.147 179.493C154.53 179.767 153.948 179.992 153.403 180.159C152.855 180.331 152.31 180.517 151.762 180.723C149.366 181.819 147.195 183.167 145.245 184.773C143.295 186.38 141.737 188.382 140.576 190.773C140.233 191.458 139.993 192.174 139.856 192.928C139.719 193.682 139.582 194.431 139.444 195.185C139.307 196.209 138.896 196.86 138.214 197.134C135.274 198.433 132.437 198.364 129.702 196.929C128.335 196.179 128.026 194.641 128.78 192.315C129.393 190.263 130.3 188.42 131.5 186.78C132.695 185.139 134.082 183.635 135.655 182.268C141.067 177.674 147.222 174.975 154.131 174.152C155.566 173.947 157.017 173.947 158.491 174.152C159.962 174.358 161.382 174.598 162.75 174.872C163.911 175.077 164.92 175.553 165.777 176.307C166.631 177.061 167.297 177.982 167.777 179.075C169.757 183.586 171.605 188.268 173.318 193.122C174.412 196.061 175.436 199.019 176.396 201.992C177.352 204.965 178.346 207.957 179.37 210.965C179.508 211.239 179.61 211.513 179.679 211.787C179.885 211.17 180.071 210.626 180.243 210.146C180.414 209.67 180.601 209.191 180.806 208.711C182.311 204.885 183.815 201.109 185.32 197.382C186.824 193.659 188.328 189.913 189.833 186.155C190.244 185.2 190.617 184.206 190.96 183.182C191.299 182.158 191.642 181.164 191.985 180.209C192.529 178.229 193.889 177.064 196.06 176.722C197.145 176.585 198.193 176.551 199.21 176.619C200.227 176.688 201.205 176.962 202.154 177.441C203.441 177.99 204.05 178.945 203.982 180.312C203.913 184.141 203.86 187.952 203.83 191.744C203.795 195.539 203.776 199.35 203.776 203.176V214.402C203.776 218.129 203.811 221.871 203.879 225.629C203.948 228.568 204.016 231.491 204.085 234.396C204.153 237.305 204.256 240.224 204.393 243.163L204.702 250.853C204.77 251.946 204.648 252.715 204.344 253.16H204.348Z" fill="#014A3D"/>
<path d="M211.188 206.968C209.741 206.419 209.047 205.43 209.116 203.994C209.185 202.765 209.234 201.55 209.268 200.355C209.303 199.16 209.322 197.98 209.322 196.818C209.322 195.657 209.874 194.869 210.978 194.458C213.603 193.503 216.154 193.468 218.641 194.355C219.883 194.904 220.504 195.859 220.504 197.226C220.435 197.842 220.401 198.455 220.401 199.072C220.401 199.689 220.367 200.302 220.298 200.918H220.191C220.191 201.467 220.172 202.03 220.142 202.609C220.108 203.191 220.123 203.755 220.191 204.299C220.329 205.053 220.226 205.616 219.883 205.993C219.536 206.37 219.091 206.659 218.539 206.865C216.12 207.752 213.671 207.786 211.188 206.968ZM220.812 215.48C220.744 218.213 220.709 220.95 220.709 223.684V248.188C220.709 249.144 220.588 249.863 220.348 250.343C220.104 250.823 219.502 251.127 218.535 251.264C217.567 251.47 216.585 251.622 215.583 251.725C214.581 251.828 213.599 251.809 212.631 251.672C211.39 251.535 210.578 251.192 210.198 250.648C209.817 250.1 209.63 249.213 209.63 247.979V223.779C209.63 222.481 209.645 221.198 209.683 219.934C209.718 218.67 209.699 217.387 209.63 216.089C209.63 214.38 210.388 213.321 211.908 212.91C214.463 212.16 216.844 212.16 219.053 212.91C220.226 213.321 220.812 214.178 220.812 215.476V215.48Z" fill="#014A3D"/>
<path d="M261.226 243.879C262.048 241.694 262.677 239.437 263.122 237.111C263.568 234.788 263.858 232.428 263.995 230.037C264.334 226.756 264.574 223.543 264.715 220.398C264.852 217.254 264.989 214.041 265.126 210.759C265.194 209.05 265.16 207.341 265.023 205.635C264.886 203.926 264.749 202.217 264.612 200.507C264.543 199.483 264.646 198.714 264.92 198.2C265.194 197.686 265.808 197.367 266.767 197.226C267.727 197.02 268.668 196.902 269.59 196.868C270.511 196.834 271.452 196.887 272.412 197.024C273.573 197.161 274.362 197.485 274.773 197.999C275.184 198.513 275.455 199.35 275.592 200.511C276.14 204.272 276.327 207.996 276.156 211.688C275.984 215.381 275.798 219.07 275.592 222.762C275.455 226.112 275.181 229.443 274.773 232.759C274.362 236.075 273.676 239.372 272.72 242.653C272.039 245.181 271.044 247.743 269.746 250.343C268.992 251.915 267.845 253.096 266.31 253.88C264.772 254.664 263.164 255.075 261.489 255.109C259.813 255.144 258.186 254.854 256.617 254.238C255.044 253.621 253.848 252.7 253.026 251.47C252.066 250.172 251.331 248.82 250.821 247.42C250.306 246.019 249.846 244.599 249.438 243.163C249.301 242.619 249.179 242.086 249.08 241.576C248.977 241.062 248.821 240.434 248.619 239.68C248.139 240.704 247.728 241.648 247.389 242.501C247.046 243.358 246.635 244.191 246.159 245.014C244.86 247.473 243.097 249.197 240.876 250.191C238.652 251.181 236.207 251.371 233.541 250.754C230.6 250.069 228.65 248.531 227.694 246.14C227.215 244.911 226.788 243.662 226.411 242.398C226.034 241.134 225.779 239.851 225.642 238.553C225.23 235.066 224.975 231.564 224.872 228.043C224.769 224.521 224.888 221.019 225.23 217.532C225.436 214.73 225.642 211.978 225.843 209.278C226.049 206.579 226.289 203.827 226.563 201.025C226.7 199.658 227.043 198.703 227.592 198.155C228.136 197.61 229.096 197.268 230.463 197.131C231.419 196.994 232.36 196.994 233.286 197.131C234.207 197.268 235.148 197.439 236.108 197.645C237.338 197.85 237.852 198.771 237.646 200.412C236.961 205.197 236.466 209.967 236.161 214.715C235.853 219.466 235.765 224.27 235.902 229.124C235.971 230.833 236.074 232.523 236.211 234.198C236.348 235.873 236.485 237.567 236.622 239.273C236.965 239.273 237.201 239.307 237.342 239.376C237.547 238.557 237.768 237.769 238.008 237.019C238.248 236.269 238.435 235.481 238.572 234.659C239.254 230.559 239.92 226.489 240.572 222.458C241.223 218.426 241.889 214.357 242.571 210.257C242.708 209.435 242.861 208.601 243.032 207.744C243.203 206.892 243.356 206.054 243.493 205.232C243.767 203.591 244.791 202.601 246.57 202.259C247.8 202.053 249.099 201.95 250.466 201.95C252.245 202.087 253.509 202.479 254.264 203.13C255.014 203.781 255.494 204.992 255.699 206.77C256.179 210.87 256.621 214.974 257.032 219.074C257.444 223.174 257.92 227.277 258.468 231.377C258.811 233.498 259.15 235.58 259.493 237.632C259.836 239.684 260.175 241.77 260.517 243.887H261.237L261.226 243.879Z" fill="#014A3D"/>
<path d="M291.489 231.164C291.421 234.446 291.504 237.624 291.744 240.7C291.984 243.776 292.99 246.784 294.772 249.723C294.978 249.174 295.214 248.611 295.492 248.032C295.766 247.45 295.934 246.852 296.006 246.239C296.212 245.078 296.349 243.951 296.418 242.855C296.486 241.762 296.52 240.632 296.52 239.471C296.52 238.172 297.035 237.354 298.059 237.011C300.523 236.056 303.018 236.056 305.547 237.011C307.051 237.56 307.733 238.584 307.596 240.087C307.459 241.454 307.322 242.855 307.185 244.294C307.048 245.729 306.773 247.13 306.362 248.497C304.446 254.923 299.83 257.69 292.514 256.803C287.315 256.187 283.895 253.35 282.257 248.291C281.572 246.312 281.13 244.309 280.924 242.291C280.718 240.274 280.547 238.241 280.41 236.189C280.273 232.432 280.391 228.705 280.768 225.012C281.141 221.319 281.911 217.665 283.076 214.041C283.487 212.605 284.032 211.204 284.717 209.838C285.399 208.471 286.119 207.139 286.873 205.837C288.515 203.378 290.514 201.821 292.872 201.17C295.233 200.522 297.781 200.469 300.516 201.017C303.25 201.497 305.475 202.555 307.185 204.196C308.895 205.837 310.125 207.988 310.879 210.656C311.766 213.664 311.664 216.842 310.571 220.193C309.546 223.474 307.885 225.971 305.596 227.677C303.304 229.386 300.52 230.444 297.237 230.856C296.349 230.993 295.443 231.061 294.517 231.061C293.592 231.061 292.586 231.095 291.493 231.164H291.489ZM297.644 206.964C295.523 209.903 294.121 212.91 293.435 215.986C292.754 219.062 292.205 222.206 291.794 225.419C292.818 225.968 293.759 226.12 294.616 225.88C295.469 225.64 296.17 225.145 296.719 224.392C297.336 223.642 297.899 222.854 298.41 222.035C298.924 221.213 299.35 220.326 299.689 219.366C300.443 217.25 300.68 215.164 300.409 213.112C300.135 211.06 299.213 209.012 297.64 206.96L297.644 206.964Z" fill="#014A3D"/>
<path d="M125.44 247.948C132.448 246.38 139.425 248.223 144.62 252.387C141.699 258.368 136.181 263.012 129.169 264.585C122.169 266.153 115.191 264.31 109.996 260.146C112.917 254.165 118.436 249.521 125.436 247.952L125.44 247.948Z" fill="white"/>
<path d="M147.363 273.633C145.024 277.737 141.037 280.314 136.706 280.996C135.087 276.926 135.27 272.183 137.613 268.079C139.951 263.979 143.939 261.402 148.265 260.72C149.884 264.79 149.701 269.533 147.363 273.633Z" fill="white"/>
<path d="M337.41 204.272C331.08 207.668 323.867 207.771 317.742 205.155C318.942 198.608 323.014 192.65 329.34 189.254C335.658 185.862 342.876 185.759 349 188.375C347.8 194.923 343.729 200.88 337.41 204.272Z" fill="white"/>
<path d="M309.382 185.424C310.533 180.841 313.679 177.289 317.662 175.466C320.317 178.949 321.418 183.567 320.267 188.15C319.121 192.726 315.975 196.282 311.988 198.101C309.333 194.618 308.232 190 309.382 185.424Z" fill="white"/>
</g>
<g clip-path="url(#clip1_5000_944)">
<path d="M376.21 121.856C394.565 122.642 410.905 131.168 421.487 143.86C410.822 155.645 394.431 162.772 376.077 161.987C357.744 161.203 341.405 152.676 330.823 139.983C341.486 128.199 357.877 121.073 376.21 121.856Z" fill="#014A3D"/>
<path d="M416.269 193.865C408.114 201.742 396.717 205.123 385.546 203.986C383.817 193.729 386.965 183.063 395.12 175.186C403.265 167.319 414.662 163.938 425.833 165.077C427.56 175.333 424.414 186 416.267 193.865L416.269 193.865Z" fill="#014A3D"/>
</g>
<g clip-path="url(#clip2_5000_944)">
<path d="M46.4515 287.994C31.4978 284.441 19.81 274.348 13.7285 261.464C24.9571 252.692 39.9351 248.936 54.8875 252.489C69.8233 256.038 81.5104 266.131 87.5919 279.016C76.3654 287.787 61.3874 291.543 46.4515 287.994Z" fill="#014A3D"/>
<path d="M28.4016 218.01C36.7524 212.307 46.8399 211.089 55.8038 213.835C55.1 223.184 50.294 232.136 41.9432 237.839C33.6027 243.535 23.5152 244.753 14.552 242.005C15.2572 232.657 20.0618 223.705 28.403 218.011L28.4016 218.01Z" fill="#014A3D"/>
</g>
<g clip-path="url(#clip3_5000_944)">
<path d="M291.451 96.4513C284.206 91.5748 279.293 84.3401 277.519 77.0033C284.133 75.3108 292.14 76.7712 299.385 81.6471C306.622 86.5171 311.535 93.7524 313.308 101.089C306.696 102.782 298.688 101.321 291.451 96.4513Z" fill="#014A3D"/>
<path d="M289.442 59.8189C294.277 58.9441 299.535 60.5419 303.815 63.7532C302.499 67.9774 299.135 71.1344 294.3 72.0091C289.472 72.8829 284.213 71.2851 279.934 68.0733C281.251 63.8497 284.614 60.6921 289.443 59.8195L289.442 59.8189Z" fill="#014A3D"/>
</g>
<g clip-path="url(#clip4_5000_944)">
<path d="M66.133 150.801C69.9282 139.372 78.6039 130.938 89.0762 127.071C95.1563 136.434 97.0653 148.382 93.2708 159.811C89.481 171.227 80.8041 179.66 70.3318 183.527C64.2522 174.165 62.3432 162.217 66.133 150.801Z" fill="#014A3D"/>
<path d="M121.993 141.491C125.874 148.399 126.136 156.356 123.38 163.166C116.131 161.978 109.471 157.615 105.59 150.707C101.713 143.808 101.452 135.851 104.209 129.042C111.457 130.231 118.117 134.593 121.992 141.493L121.993 141.491Z" fill="#014A3D"/>
</g>
<g clip-path="url(#clip5_5000_944)">
<path d="M93.5386 68.3722C82.5683 63.403 75.0875 53.8932 72.3362 43.074C82.2841 38.0061 94.366 37.3564 105.335 42.3248C116.293 47.2871 123.773 56.7979 126.524 67.6171C116.578 72.6848 104.496 73.3345 93.5386 68.3722Z" fill="#014A3D"/>
<path d="M90.1188 11.8451C97.3945 8.70709 105.335 9.27884 111.819 12.7311C109.88 19.8167 104.845 25.9834 97.5697 29.1215C90.3029 32.2557 82.3621 31.6839 75.8788 28.2307C77.8189 21.1459 82.8528 14.9784 90.1198 11.8459L90.1188 11.8451Z" fill="#014A3D"/>
</g>
<g clip-path="url(#clip6_5000_944)">
<path d="M296.002 372.882C284.298 375.72 272.548 372.832 263.719 366C268.438 355.882 277.559 347.932 289.261 345.093C300.951 342.258 312.701 345.147 321.53 351.979C316.812 362.096 307.691 370.046 296.002 372.882Z" fill="#014A3D"/>
<path d="M258.505 330.443C262.307 323.491 268.916 319.053 276.151 317.781C278.985 324.559 278.814 332.518 275.013 339.47C271.216 346.414 264.607 350.852 257.372 352.122C254.539 345.345 254.709 337.386 258.506 330.443L258.505 330.443Z" fill="#014A3D"/>
</g>
<g clip-path="url(#clip7_5000_944)">
<path d="M144.798 320.217C145.969 304.891 154.108 291.768 165.882 283.746C176.303 293.464 182.356 307.67 181.185 322.994C180.017 338.302 171.876 351.424 160.102 359.446C149.682 349.73 143.629 335.524 144.798 320.217Z" fill="#014A3D"/>
<path d="M211.097 291.441C218.036 298.797 220.817 308.57 219.507 317.853C210.163 318.62 200.569 315.274 193.63 307.918C186.699 300.571 183.919 290.798 185.23 281.515C194.574 280.75 204.168 284.095 211.096 291.442L211.097 291.441Z" fill="#014A3D"/>
</g>
<g clip-path="url(#clip8_5000_944)">
<path d="M40.4237 448.102C35.35 423.594 39.4403 398.88 49.9752 380.219C66.3846 389.928 79.5236 408.916 84.5973 433.422C89.6661 457.9 85.5738 482.615 75.039 501.275C58.6316 491.569 45.4925 472.581 40.4237 448.102Z" fill="#014A3D"/>
<path d="M106.652 368.594C117.952 376.438 125.356 390.223 127.719 405.382C117 411.461 104.252 411.256 92.952 403.411C81.6656 395.577 74.2619 381.791 71.9006 366.632C82.6201 360.556 95.3677 360.759 106.652 368.596L106.652 368.594Z" fill="#014A3D"/>
</g>
<g clip-path="url(#clip9_5000_944)">
<path d="M348.738 275.961C350.39 264.35 358.058 255.35 368.701 250.745C377.433 259.579 382.156 271.283 380.504 282.893C378.855 294.489 371.186 303.489 360.542 308.094C351.811 299.261 347.088 287.557 348.738 275.961Z" fill="#014A3D"/>
<path d="M408 262.615C413.779 269.177 415.816 277.046 414.289 284C406.071 283.356 397.803 279.522 392.024 272.96C386.252 266.406 384.215 258.537 385.744 251.584C393.961 252.229 402.23 256.062 408 262.616L408 262.615Z" fill="#014A3D"/>
</g>
<g clip-path="url(#clip10_5000_944)">
<path d="M295.055 428.346C300.454 439.112 300.283 451.21 295.612 461.35C284.692 459.028 274.893 451.93 269.495 441.165C264.103 430.413 264.275 418.314 268.946 408.175C279.864 410.496 289.663 417.594 295.055 428.346Z" fill="#014A3D"/>
<path d="M262.139 474.428C254.51 472.288 248.699 466.847 245.833 460.083C251.799 455.797 259.592 454.173 267.221 456.313C274.841 458.451 280.652 463.892 283.518 470.656C277.551 474.941 269.758 476.566 262.139 474.427L262.139 474.428Z" fill="#014A3D"/>
</g>
<g clip-path="url(#clip11_5000_944)">
<path d="M430.055 583.346C435.454 594.112 435.283 606.21 430.612 616.35C419.692 614.028 409.893 606.93 404.495 596.165C399.103 585.413 399.275 573.314 403.946 563.175C414.864 565.496 424.663 572.594 430.055 583.346Z" fill="#014A3D"/>
<path d="M397.139 629.428C389.51 627.288 383.699 621.847 380.833 615.083C386.799 610.797 394.592 609.173 402.221 611.313C409.841 613.451 415.652 618.892 418.518 625.656C412.551 629.941 404.758 631.566 397.139 629.427L397.139 629.428Z" fill="#014A3D"/>
</g>
<g clip-path="url(#clip12_5000_944)">
<path d="M310.788 532.045C310.089 518.437 315.435 505.848 324.366 497.261C334.107 504.425 340.7 516.103 341.4 529.71C342.099 543.302 336.751 555.89 327.821 564.478C318.081 557.314 311.488 545.637 310.788 532.045Z" fill="#014A3D"/>
<path d="M362.866 498.084C369.45 503.632 372.833 511.847 372.756 520.168C365.057 522.068 356.701 520.389 350.118 514.841C343.543 509.301 340.159 501.086 340.237 492.764C347.936 490.866 356.292 492.544 362.866 498.086L362.866 498.084Z" fill="#014A3D"/>
</g>
<g clip-path="url(#clip13_5000_944)">
<path d="M189.06 506.146C173.864 508.452 159.247 503.473 148.781 493.805C155.907 481.466 168.387 472.373 183.581 470.066C198.759 467.761 213.376 472.741 223.841 482.409C216.718 494.747 204.238 503.841 189.06 506.146Z" fill="#014A3D"/>
<path d="M146.108 448.019C151.714 439.603 160.611 434.695 169.951 433.883C172.801 442.815 171.698 452.915 166.092 461.331C160.492 469.737 151.595 474.645 142.256 475.455C139.407 466.523 140.509 456.423 146.109 448.019L146.108 448.019Z" fill="#014A3D"/>
</g>
<g clip-path="url(#clip14_5000_944)">
<path d="M281.276 609.608C273.158 610.84 265.35 608.18 259.759 603.016C263.565 596.424 270.232 591.567 278.349 590.334C286.457 589.103 294.265 591.764 299.855 596.928C296.05 603.519 289.383 608.376 281.276 609.608Z" fill="#014A3D"/>
<path d="M258.331 578.557C261.326 574.061 266.078 571.44 271.068 571.006C272.59 575.777 272.001 581.173 269.006 585.669C266.015 590.159 261.262 592.78 256.273 593.213C254.752 588.442 255.34 583.046 258.332 578.557L258.331 578.557Z" fill="#014A3D"/>
</g>
<g clip-path="url(#clip15_5000_944)">
<path d="M103.903 549.932C124.827 546.15 145.654 550.591 161.158 560.622C152.443 575.032 135.96 586.219 115.039 590.001C94.141 593.78 73.3141 589.337 57.8093 579.306C66.5221 564.897 83.0055 553.71 103.903 549.932Z" fill="#014A3D"/>
<path d="M169.334 611.808C162.351 621.695 150.448 627.902 137.529 629.546C132.694 619.744 133.245 608.32 140.228 598.433C147.203 588.558 159.107 582.35 172.026 580.708C176.858 590.51 176.309 601.934 169.332 611.808H169.334Z" fill="#014A3D"/>
</g>
<g clip-path="url(#clip16_5000_944)">
<path d="M408.43 454.792C396.746 455.794 386.251 450.347 379.37 441.012C386.014 430.516 396.355 423.282 408.039 422.28C419.709 421.279 430.203 426.727 437.085 436.061C430.442 446.556 420.101 453.79 408.43 454.792Z" fill="#014A3D"/>
<path d="M382.096 400.05C387.189 392.943 394.399 389.189 401.517 389.112C402.739 397.264 400.863 406.183 395.769 413.29C390.682 420.389 383.473 424.143 376.354 424.218C375.133 416.066 377.008 407.147 382.097 400.05L382.096 400.05Z" fill="#014A3D"/>
</g>
<g clip-path="url(#clip17_5000_944)">
<path d="M206.531 136.148C187.44 140.328 168.803 133.985 155.23 120.658C163.755 102.49 179.162 88.6923 198.251 84.5124C217.319 80.3361 235.955 86.6808 249.528 100.009C241.005 118.174 225.598 131.972 206.531 136.148Z" fill="#014A3D"/>
<path d="M150.124 54.8882C156.881 42.4545 167.923 34.886 179.68 33.1894C183.614 45.8878 182.605 60.492 175.848 72.9257C169.099 85.3442 158.057 92.9127 146.3 94.6071C142.368 81.9087 143.375 67.3045 150.126 54.8883L150.124 54.8882Z" fill="#014A3D"/>
</g>
<defs>
<clipPath id="clip0_5000_944">
<rect width="239" height="107" fill="white" transform="translate(110 174)"/>
</clipPath>
<clipPath id="clip1_5000_944">
<rect width="100.985" height="78.7326" fill="white" transform="translate(338.047 111) rotate(14)"/>
</clipPath>
<clipPath id="clip2_5000_944">
<rect width="84.1441" height="71.9424" fill="white" transform="translate(75.6284 303.548) rotate(-154)"/>
</clipPath>
<clipPath id="clip3_5000_944">
<rect width="48.2453" height="32.6494" fill="white" transform="translate(304.705 110) rotate(-136)"/>
</clipPath>
<clipPath id="clip4_5000_944">
<rect width="65.9307" height="56.3702" fill="white" transform="translate(52 172.514) rotate(-59)"/>
</clipPath>
<clipPath id="clip5_5000_944">
<rect width="65.9307" height="56.3702" fill="white" transform="translate(113.655 84.6974) rotate(-143)"/>
</clipPath>
<clipPath id="clip6_5000_944">
<rect width="65.9307" height="56.3702" fill="white" transform="translate(321.904 373.362) rotate(179)"/>
</clipPath>
<clipPath id="clip7_5000_944">
<rect width="84.1441" height="71.9424" fill="white" transform="translate(134 351.467) rotate(-73)"/>
</clipPath>
<clipPath id="clip8_5000_944">
<rect width="138.408" height="90.2246" fill="white" transform="translate(40.8303 502.472) rotate(-92)"/>
</clipPath>
<clipPath id="clip9_5000_944">
<rect width="63.5814" height="64.5479" fill="white" transform="translate(338 298.527) rotate(-67)"/>
</clipPath>
<clipPath id="clip10_5000_944">
<rect width="65.9307" height="56.3702" fill="white" transform="translate(289.696 403) rotate(76)"/>
</clipPath>
<clipPath id="clip11_5000_944">
<rect width="65.9307" height="56.3702" fill="white" transform="translate(424.696 558) rotate(76)"/>
</clipPath>
<clipPath id="clip12_5000_944">
<rect width="74.7926" height="60.3444" fill="white" transform="translate(305.209 560.898) rotate(-81)"/>
</clipPath>
<clipPath id="clip13_5000_944">
<rect width="84.1441" height="71.9424" fill="white" transform="translate(221.939 509.637) rotate(-176)"/>
</clipPath>
<clipPath id="clip14_5000_944">
<rect width="44.9486" height="38.4306" fill="white" transform="translate(298.839 611.472) rotate(-176)"/>
</clipPath>
<clipPath id="clip15_5000_944">
<rect width="117.386" height="80.9526" fill="white" transform="translate(57.8071 548.594)"/>
</clipPath>
<clipPath id="clip16_5000_944">
<rect width="63.5814" height="64.5479" fill="white" transform="translate(432.833 460.178) rotate(-170)"/>
</clipPath>
<clipPath id="clip17_5000_944">
<rect width="106.222" height="103.672" fill="white" transform="translate(248.158 139.316) rotate(-178)"/>
</clipPath>
</defs>
</svg>
