<svg width="239" height="107" viewBox="0 0 239 107" fill="none" xmlns="http://www.w3.org/2000/svg">
<g clip-path="url(#clip0_5579_1299)">
<path d="M94.3475 79.1602C94.0428 79.6018 93.3497 79.9939 92.2642 80.3404C89.8952 80.9571 87.591 80.8162 85.3553 79.9292C84.8792 79.6551 84.525 79.3468 84.2851 79.008C84.049 78.6653 83.9309 78.1895 83.9309 77.5728C83.7938 72.2431 83.6567 66.8945 83.5195 61.5268C83.3824 56.1629 83.2453 50.8104 83.1082 45.4808C83.0397 43.2956 83.0587 41.1067 83.1577 38.9177C83.2606 36.7325 83.3101 34.5436 83.3101 32.3546C83.1044 32.3546 82.933 32.3204 82.7959 32.2518C82.6588 32.5945 82.5407 32.9028 82.4379 33.1731C82.3351 33.4472 82.217 33.7556 82.0799 34.0944C80.9868 37.2389 79.9242 40.3833 78.8997 43.5278C77.8751 46.6723 76.8125 49.8168 75.7194 52.9613C75.4452 53.7836 75.0529 54.484 74.5388 55.0627C74.0246 55.6451 73.3238 56.003 72.4364 56.14C70.3835 56.3456 68.3649 56.3456 66.3845 56.14C64.9486 55.9345 63.9583 54.9789 63.4099 53.2696C62.1112 48.9641 60.7934 44.708 59.4603 40.5052C58.1273 36.3024 56.7752 32.0805 55.4079 27.8435C55.4079 27.7064 55.3737 27.5694 55.3051 27.4323C55.2366 27.2953 55.1337 27.0593 54.9966 26.7128C54.9281 27.0555 54.8938 27.3295 54.8938 27.5351L53.3551 76.7543C53.3551 77.0931 53.3703 77.4205 53.4084 77.7288C53.4427 78.0372 53.5265 78.3608 53.6636 78.7034C54.0025 79.6589 53.6979 80.447 52.7419 81.0637C52.1934 81.4025 51.5117 81.6614 50.689 81.8327C49.8664 82.004 49.0132 82.0725 48.122 82.0382C47.2346 82.004 46.3967 81.9012 45.6083 81.7299C44.8237 81.5586 44.1877 81.2692 43.7116 80.8581C43.1632 80.5155 42.8204 80.0016 42.6871 79.3201C42.55 78.909 42.4814 78.4826 42.4814 78.0372V76.7581C42.6185 71.0173 42.7709 65.326 42.9422 59.6842C43.1136 54.0462 43.3003 48.355 43.5059 42.6104C43.643 37.4178 43.8297 32.2214 44.0696 27.025C44.3057 21.8324 44.5305 16.636 44.7361 11.4396C44.8047 10.4841 44.8542 9.52477 44.8885 8.56924C44.9227 7.61371 45.0065 6.58585 45.1475 5.49328C44.5305 5.76737 43.9477 5.99198 43.4031 6.15948C42.8547 6.33079 42.31 6.51733 41.7616 6.7229C39.3659 7.81928 37.195 9.16692 35.245 10.7734C33.295 12.3799 31.7372 14.3823 30.5756 16.7731C30.2328 17.4583 29.9929 18.174 29.8558 18.9278C29.7186 19.6815 29.5815 20.4315 29.4444 21.1852C29.3073 22.2093 28.896 22.8603 28.2142 23.1344C25.274 24.4325 22.4365 24.364 19.7019 22.9288C18.3346 22.1788 18.0261 20.6409 18.7802 18.3149C19.3934 16.2629 20.2999 14.4204 21.4996 12.7796C22.6955 11.1389 24.0818 9.63517 25.6548 8.2685C31.0669 3.67359 37.2217 0.974512 44.1305 0.152226C45.5664 -0.053346 47.0175 -0.053346 48.4914 0.152226C49.9616 0.357797 51.3822 0.597631 52.7495 0.871726C53.9111 1.0773 54.9204 1.55316 55.7774 2.30692C56.6305 3.06068 57.297 3.98195 57.7769 5.07452C59.7574 9.58568 61.6046 14.2681 63.3185 19.1219C64.4116 22.0608 65.4361 25.0188 66.3959 27.9919C67.3518 30.9651 68.3459 33.9573 69.3704 36.9648C69.5075 37.2389 69.6104 37.513 69.6789 37.7871C69.8846 37.1703 70.0712 36.6259 70.2426 36.1463C70.414 35.6704 70.6006 35.1908 70.8063 34.7111C72.3107 30.8852 73.8151 27.1087 75.3195 23.3818C76.8239 19.6587 78.3284 15.9127 79.8328 12.1553C80.2441 11.1998 80.6174 10.2062 80.9601 9.18215C81.2991 8.1581 81.6419 7.1645 81.9847 6.20897C82.5293 4.22939 83.889 3.06449 86.0599 2.72187C87.1454 2.58482 88.1927 2.55056 89.2097 2.61908C90.2266 2.68761 91.2054 2.9617 92.1537 3.44137C93.4411 3.98956 94.0504 4.94509 93.9819 6.31176C93.9133 10.1415 93.86 13.9522 93.8295 17.7438C93.7953 21.5393 93.7762 25.35 93.7762 29.1759V40.4024C93.7762 44.1293 93.8105 47.8715 93.8791 51.6289C93.9476 54.5678 94.0162 57.4915 94.0847 60.3961C94.1533 63.3046 94.2561 66.2244 94.3932 69.1634L94.7017 76.8533C94.7703 77.9458 94.6484 78.7148 94.3437 79.1602H94.3475Z" fill="#014A3D"/>
<path d="M101.188 32.9676C99.7406 32.4194 99.0474 31.4296 99.116 29.9944C99.1845 28.7648 99.234 27.5504 99.2683 26.355C99.3026 25.1596 99.3216 23.9795 99.3216 22.8184C99.3216 21.6573 99.8739 20.8693 100.978 20.4581C103.603 19.5026 106.154 19.4684 108.641 20.3554C109.883 20.9035 110.504 21.8591 110.504 23.2257C110.435 23.8425 110.401 24.4554 110.401 25.0721C110.401 25.6888 110.367 26.3017 110.298 26.9184H110.191C110.191 27.4666 110.172 28.03 110.142 28.6087C110.108 29.1911 110.123 29.7545 110.191 30.2989C110.329 31.0527 110.226 31.6161 109.883 31.993C109.536 32.3699 109.091 32.6592 108.539 32.8648C106.12 33.7518 103.671 33.786 101.188 32.9676ZM110.812 41.4797C110.744 44.2131 110.709 46.9502 110.709 49.6836V74.1885C110.709 75.144 110.588 75.8635 110.348 76.3432C110.104 76.8228 109.502 77.1274 108.535 77.2644C107.567 77.47 106.585 77.6223 105.583 77.7251C104.581 77.8278 103.599 77.8088 102.631 77.6718C101.39 77.5347 100.578 77.1921 100.198 76.6477C99.8167 76.0995 99.6301 75.2125 99.6301 73.9791V49.7787C99.6301 48.4806 99.6454 47.1977 99.6835 45.9338C99.7177 44.6699 99.6987 43.387 99.6301 42.0888C99.6301 40.3795 100.388 39.3212 101.908 38.9101C104.463 38.1601 106.844 38.1601 109.053 38.9101C110.226 39.3212 110.812 40.1778 110.812 41.4759V41.4797Z" fill="#014A3D"/>
<path d="M151.226 69.8792C152.048 67.694 152.677 65.4365 153.122 63.1105C153.568 60.7883 153.858 58.4281 153.995 56.0373C154.334 52.7558 154.574 49.5428 154.715 46.3983C154.852 43.2538 154.989 40.0408 155.126 36.7593C155.194 35.05 155.16 33.3407 155.023 31.6352C154.886 29.926 154.749 28.2167 154.612 26.5074C154.543 25.4833 154.646 24.7143 154.92 24.2004C155.194 23.6865 155.808 23.3667 156.767 23.2258C157.727 23.0203 158.668 22.9023 159.59 22.868C160.511 22.8337 161.452 22.887 162.412 23.0241C163.573 23.1611 164.362 23.4847 164.773 23.9986C165.184 24.5126 165.455 25.3501 165.592 26.5112C166.14 30.2724 166.327 33.9955 166.156 37.6882C165.984 41.3809 165.798 45.0697 165.592 48.7624C165.455 52.1125 165.181 55.4435 164.773 58.7593C164.362 62.0751 163.676 65.3718 162.72 68.6534C162.039 71.1811 161.044 73.7432 159.746 76.3433C158.992 77.9155 157.845 79.0956 156.31 79.8798C154.772 80.6641 153.164 81.0752 151.489 81.1095C149.813 81.1437 148.186 80.8544 146.617 80.2377C145.044 79.621 143.848 78.6997 143.026 77.4701C142.066 76.1719 141.331 74.8205 140.821 73.4196C140.306 72.0186 139.846 70.5987 139.438 69.1635C139.301 68.6191 139.179 68.0861 139.08 67.576C138.977 67.0621 138.821 66.4339 138.619 65.6802C138.139 66.7042 137.728 67.6483 137.389 68.5011C137.046 69.3576 136.635 70.1913 136.159 71.0136C134.86 73.4729 133.097 75.1974 130.876 76.191C128.652 77.1808 126.207 77.3711 123.541 76.7544C120.6 76.0692 118.65 74.5312 117.694 72.1405C117.215 70.9108 116.788 69.6622 116.411 68.3983C116.034 67.1344 115.779 65.8515 115.642 64.5533C115.23 61.0662 114.975 57.5639 114.872 54.0425C114.769 50.5212 114.888 47.0188 115.23 43.5317C115.436 40.7299 115.642 37.9775 115.843 35.2784C116.049 32.5793 116.289 29.827 116.563 27.0251C116.7 25.6584 117.043 24.7029 117.592 24.1547C118.136 23.6103 119.096 23.2677 120.463 23.1307C121.419 22.9936 122.36 22.9936 123.286 23.1307C124.207 23.2677 125.148 23.439 126.108 23.6446C127.338 23.8502 127.852 24.7714 127.646 26.4122C126.961 31.1974 126.466 35.9675 126.161 40.7147C125.853 45.4656 125.765 50.2699 125.902 55.1237C125.971 56.833 126.074 58.5232 126.211 60.1983C126.348 61.8733 126.485 63.5674 126.622 65.2728C126.965 65.2728 127.201 65.3071 127.342 65.3756C127.547 64.5572 127.768 63.7691 128.008 63.0192C128.248 62.2692 128.435 61.4812 128.572 60.6589C129.254 56.5589 129.92 52.4893 130.572 48.4579C131.223 44.4264 131.889 40.3568 132.571 36.2568C132.708 35.4345 132.861 34.6008 133.032 33.7443C133.203 32.8915 133.356 32.054 133.493 31.2317C133.767 29.5909 134.791 28.6012 136.57 28.2585C137.8 28.053 139.099 27.9502 140.466 27.9502C142.245 28.0872 143.509 28.4793 144.264 29.1303C145.014 29.7813 145.494 30.9919 145.699 32.7697C146.179 36.8697 146.621 40.9735 147.032 45.0735C147.444 49.1735 147.92 53.2774 148.468 57.3774C148.811 59.4978 149.15 61.5802 149.493 63.6321C149.836 65.684 150.175 67.7702 150.517 69.8868H151.237L151.226 69.8792Z" fill="#014A3D"/>
<path d="M181.489 57.164C181.421 60.4455 181.504 63.6242 181.744 66.7002C181.984 69.7762 182.99 72.7836 184.772 75.7225C184.978 75.1743 185.214 74.6109 185.492 74.0323C185.766 73.4498 185.934 72.8521 186.006 72.2392C186.212 71.0781 186.349 69.9513 186.418 68.8549C186.486 67.7623 186.52 66.6317 186.52 65.4706C186.52 64.1724 187.035 63.354 188.059 63.0113C190.523 62.0558 193.018 62.0558 195.547 63.0113C197.051 63.5595 197.733 64.5836 197.596 66.0873C197.459 67.454 197.322 68.8549 197.185 70.2939C197.048 71.7291 196.773 73.13 196.362 74.4967C194.446 80.9227 189.83 83.6903 182.514 82.8033C177.315 82.1866 173.895 79.3505 172.257 74.2911C171.572 72.3115 171.13 70.3091 170.924 68.2915C170.718 66.2738 170.547 64.241 170.41 62.1891C170.273 58.4317 170.391 54.7047 170.768 51.0121C171.141 47.3194 171.911 43.6648 173.076 40.0406C173.487 38.6054 174.032 37.2045 174.717 35.8378C175.399 34.4712 176.119 33.1387 176.873 31.8368C178.515 29.3775 180.514 27.8205 182.872 27.1696C185.233 26.5224 187.781 26.4691 190.516 27.0173C193.25 27.4969 195.475 28.5553 197.185 30.196C198.895 31.8368 200.125 33.9877 200.879 36.6563C201.766 39.6637 201.664 42.8425 200.571 46.1925C199.546 49.4741 197.885 51.9714 195.596 53.6769C193.304 55.3862 190.52 56.4445 187.237 56.8556C186.349 56.9927 185.443 57.0612 184.517 57.0612C183.592 57.0612 182.586 57.0954 181.493 57.164H181.489ZM187.644 32.9636C185.523 35.9025 184.121 38.91 183.435 41.9859C182.754 45.0619 182.205 48.2064 181.794 51.4194C182.818 51.9676 183.759 52.1199 184.616 51.88C185.469 51.6402 186.17 51.1453 186.719 50.3915C187.336 49.6416 187.899 48.8535 188.41 48.0351C188.924 47.2128 189.35 46.3258 189.689 45.3664C190.443 43.2498 190.68 41.1636 190.409 39.1117C190.135 37.0598 189.213 35.0117 187.64 32.9598L187.644 32.9636Z" fill="#014A3D"/>
<path d="M15.4401 73.9485C22.448 72.38 29.4255 74.2226 34.6205 78.3873C31.6992 84.3679 26.1805 89.0123 19.1688 90.5845C12.1685 92.153 5.19108 90.3104 -0.00390625 86.1457C2.91732 80.1651 8.43605 75.5207 15.4363 73.9523L15.4401 73.9485Z" fill="white"/>
<path d="M37.3627 99.6334C35.0242 103.737 31.0365 106.314 26.7061 106.996C25.0874 102.926 25.2702 98.183 27.6126 94.0792C29.9511 89.9791 33.9387 87.4019 38.2653 86.7205C39.884 90.79 39.7012 95.5334 37.3627 99.6334Z" fill="white"/>
<path d="M227.41 30.2723C221.08 33.668 213.867 33.7708 207.742 31.1555C208.942 24.6076 213.014 18.6499 219.34 15.2541C225.658 11.8622 232.876 11.7594 239 14.3748C237.8 20.9226 233.729 26.8804 227.41 30.2723Z" fill="white"/>
<path d="M199.382 11.4244C200.533 6.84089 203.679 3.28907 207.662 1.46558C210.317 4.94887 211.418 9.56662 210.267 14.1501C209.121 18.726 205.975 22.2816 201.988 24.1013C199.333 20.618 198.232 16.0002 199.382 11.4244Z" fill="white"/>
</g>
<defs>
<clipPath id="clip0_5579_1299">
<rect width="239" height="107" fill="white"/>
</clipPath>
</defs>
</svg>
