<svg width="18" height="18" viewBox="0 0 18 18" fill="none" xmlns="http://www.w3.org/2000/svg">
<path d="M11.4755 13.125L7.33379 10.5584V4.83335H9.00046V9.63335L12.3588 11.7084L11.4755 13.125ZM17.3338 9.00002C17.3338 13.5917 13.5921 17.3334 9.00046 17.3334C4.40879 17.3334 0.667122 13.5917 0.667122 9.00002H1.50046C1.50046 13.1334 4.86712 16.5 9.00046 16.5C13.1338 16.5 16.5005 13.1334 16.5005 9.00002C16.5005 4.86669 13.1338 1.50002 9.00046 1.50002C6.34212 1.50002 3.93379 2.86669 2.56712 5.15002C2.47546 5.30002 2.38379 5.45835 2.30879 5.61669C2.30046 5.63335 2.29212 5.65002 2.28379 5.66669H5.66712V6.50002H0.633789V1.50002H1.46712V5.45002C1.50046 5.37502 1.52546 5.30835 1.55879 5.24169C1.65046 5.05835 1.75046 4.89169 1.85046 4.71669C3.35046 2.21669 6.09212 0.666687 9.00046 0.666687C13.5921 0.666687 17.3338 4.40835 17.3338 9.00002Z" fill="#222222"/>
</svg>
