<svg width="208" height="208" viewBox="0 0 208 208" fill="none" xmlns="http://www.w3.org/2000/svg">
<g clip-path="url(#clip0_106_827)">
<path opacity="0.2" d="M104 144.576C113.577 152.262 125.574 156.294 137.849 155.951C165.417 155.252 188.573 131.397 188.5 103.821C188.471 93.4689 185.352 83.3609 179.543 74.7918C173.734 66.2226 165.5 59.5823 155.895 55.7212C152.007 45.0826 144.944 35.8956 135.662 29.4048C126.38 22.9139 115.327 19.4327 104 19.4327C92.6736 19.4327 81.6206 22.9139 72.3383 29.4048C63.0561 35.8956 55.993 45.0826 52.1058 55.7212C42.4952 59.5844 34.2574 66.2297 28.4482 74.8052C22.639 83.3808 19.5232 93.4958 19.5002 103.854C19.427 131.43 42.5914 155.285 70.1595 155.984C82.4358 156.316 94.4303 152.273 104 144.576Z" fill="#D9D9D9"/>
<path d="M104 198.5V81.5" stroke="#D9D9D9" stroke-width="16" stroke-linecap="round" stroke-linejoin="round"/>
<path d="M104 133.5L65 114" stroke="#D9D9D9" stroke-width="16" stroke-linecap="round" stroke-linejoin="round"/>
<path d="M104 114L143 94.5" stroke="#D9D9D9" stroke-width="16" stroke-linecap="round" stroke-linejoin="round"/>
<path d="M104 144.576C113.577 152.262 125.574 156.294 137.849 155.951C165.417 155.252 188.573 131.397 188.5 103.821C188.471 93.4689 185.352 83.3609 179.543 74.7918C173.734 66.2226 165.5 59.5823 155.895 55.7212C152.007 45.0826 144.944 35.8956 135.662 29.4048C126.38 22.9139 115.327 19.4327 104 19.4327C92.6736 19.4327 81.6206 22.9139 72.3383 29.4048C63.0561 35.8956 55.993 45.0826 52.1058 55.7212C42.4952 59.5844 34.2574 66.2297 28.4482 74.8052C22.639 83.3808 19.5232 93.4958 19.5002 103.854C19.427 131.43 42.5914 155.285 70.1595 155.984C82.4358 156.316 94.4303 152.273 104 144.576Z" stroke="#D9D9D9" stroke-width="16" stroke-linecap="round" stroke-linejoin="round"/>
</g>
<defs>
<clipPath id="clip0_106_827">
<rect width="208" height="208" fill="white"/>
</clipPath>
</defs>
</svg>
