<svg width="30" height="30" viewBox="0 0 30 30" fill="none" xmlns="http://www.w3.org/2000/svg">
<path d="M3.08984 13.43C3.08984 13.7 3.17984 13.92 3.36984 14.1C3.55984 14.28 3.79984 14.36 4.08984 14.36H5.77984C6.04984 14.36 6.27984 14.27 6.46984 14.09C6.65984 13.91 6.75984 13.69 6.75984 13.43C6.75984 13.14 6.66984 12.9 6.47984 12.72C6.28984 12.54 6.05984 12.44 5.78984 12.44H4.08984C3.79984 12.44 3.55984 12.53 3.36984 12.72C3.17984 12.89 3.08984 13.13 3.08984 13.43ZM4.85984 19.61C4.85984 20.58 5.20984 21.42 5.91984 22.13C6.62984 22.84 7.45984 23.19 8.42984 23.19H15.2898C16.2598 23.19 17.0898 22.84 17.7798 22.14C18.4698 21.44 18.8198 20.6 18.8198 19.61C18.8198 19.13 18.7498 18.72 18.6098 18.38C19.4398 17.85 20.0998 17.14 20.5798 16.26C21.0598 15.38 21.3098 14.43 21.3098 13.42C21.3098 12.61 21.1498 11.83 20.8298 11.09C20.5098 10.35 20.0798 9.71 19.5498 9.18C19.0198 8.65 18.3798 8.22 17.6398 7.9C16.8998 7.58 16.1298 7.42 15.3198 7.42C14.2298 7.42 13.2198 7.69 12.2998 8.23C11.3798 8.77 10.6498 9.5 10.1198 10.41C9.58984 11.33 9.32984 12.33 9.32984 13.42V13.76C8.32984 14.33 7.66984 15.16 7.34984 16.25C6.58984 16.49 5.98984 16.91 5.53984 17.52C5.08984 18.13 4.85984 18.83 4.85984 19.61ZM6.41984 5.45C6.41984 5.73 6.50984 5.96 6.67984 6.12L8.28984 7.81C8.75984 8.17 9.22984 8.17 9.69984 7.81C9.88984 7.62 9.97984 7.39 9.97984 7.11C9.97984 6.84 9.88984 6.61 9.69984 6.41L8.04984 4.76C7.83984 4.57 7.59984 4.47 7.34984 4.47C7.06984 4.47 6.83984 4.56 6.66984 4.75C6.49984 4.94 6.41984 5.17 6.41984 5.45ZM6.83984 19.61C6.83984 19.19 6.96984 18.83 7.23984 18.53C7.50984 18.23 7.84984 18.06 8.25984 18.02L8.87984 17.94C9.00984 17.94 9.07984 17.86 9.07984 17.71L9.16984 17.15C9.23984 16.57 9.47984 16.09 9.89984 15.71C10.3198 15.32 10.8098 15.13 11.3798 15.13C11.9598 15.13 12.4698 15.32 12.8898 15.71C13.3198 16.1 13.5698 16.58 13.6398 17.15L13.7198 17.8C13.7798 17.95 13.8598 18.03 13.9598 18.03H15.2798C15.7098 18.03 16.0798 18.19 16.3998 18.5C16.7198 18.81 16.8698 19.18 16.8698 19.62C16.8698 20.07 16.7098 20.45 16.3998 20.77C16.0898 21.09 15.7098 21.25 15.2798 21.25H8.42984C7.97984 21.25 7.59984 21.09 7.29984 20.77C6.98984 20.45 6.83984 20.06 6.83984 19.61ZM11.2598 13.22C11.3298 12.13 11.7498 11.21 12.5298 10.46C13.2998 9.72 14.2398 9.34 15.3198 9.34C16.4298 9.34 17.3798 9.74 18.1598 10.53C18.9398 11.32 19.3298 12.29 19.3298 13.42C19.3298 14.12 19.1598 14.77 18.8198 15.37C18.4798 15.97 18.0198 16.45 17.4398 16.82C16.8498 16.33 16.1698 16.09 15.4098 16.09C15.1198 15.21 14.5998 14.52 13.8698 14C13.1398 13.48 12.3098 13.22 11.3898 13.22H11.2598ZM14.3498 4.47C14.3498 4.74 14.4498 4.98 14.6398 5.17C14.8298 5.36 15.0598 5.46 15.3298 5.46C15.6098 5.46 15.8398 5.36 16.0298 5.17C16.2198 4.98 16.3198 4.75 16.3198 4.47V2.13C16.3198 1.87 16.2198 1.65 16.0298 1.47C15.8398 1.29 15.6098 1.2 15.3298 1.2C15.0598 1.2 14.8298 1.29 14.6398 1.47C14.4498 1.65 14.3498 1.87 14.3498 2.13V4.47ZM20.6698 19.7C20.6698 19.97 20.7598 20.2 20.9398 20.4L22.5798 22.02C22.9998 22.44 23.4698 22.44 23.9898 22.02C24.1698 21.85 24.2498 21.63 24.2498 21.34C24.2498 21.07 24.1598 20.85 23.9898 20.67L22.2998 19C22.1198 18.83 21.8898 18.75 21.6198 18.75C21.3398 18.75 21.1198 18.84 20.9398 19.02C20.7598 19.2 20.6698 19.43 20.6698 19.7ZM20.6698 7.09C20.6698 7.37 20.7598 7.61 20.9398 7.81C21.1198 7.99 21.3498 8.08 21.6198 8.08C21.8898 8.08 22.1198 7.99 22.2998 7.81L23.9898 6.12C24.1698 5.95 24.2498 5.73 24.2498 5.45C24.2498 5.17 24.1498 4.94 23.9598 4.76C23.7698 4.58 23.5398 4.48 23.2598 4.48C22.9998 4.48 22.7698 4.58 22.5798 4.77L20.9398 6.4C20.7598 6.58 20.6698 6.81 20.6698 7.09ZM23.2498 13.43C23.2498 13.7 23.3398 13.92 23.5298 14.1C23.7198 14.28 23.9598 14.36 24.2498 14.36H25.9398C26.2098 14.36 26.4398 14.27 26.6298 14.09C26.8198 13.91 26.9198 13.69 26.9198 13.43C26.9198 13.14 26.8298 12.9 26.6398 12.72C26.4498 12.54 26.2198 12.44 25.9498 12.44H24.2598C23.9698 12.44 23.7298 12.53 23.5398 12.72C23.3498 12.89 23.2498 13.13 23.2498 13.43Z" fill="#FFE300"/>
</svg>
