<svg width="18" height="18" viewBox="0 0 18 18" fill="none" xmlns="http://www.w3.org/2000/svg">
<g clip-path="url(#clip0_1409_674)">
<path d="M5.62501 11.625H1.87501C1.6761 11.625 1.48533 11.704 1.34468 11.8447C1.20402 11.9853 1.12501 12.1761 1.12501 12.375V16.125C1.12501 16.3239 1.20402 16.5147 1.34468 16.6553C1.48533 16.796 1.6761 16.875 1.87501 16.875H5.62501C5.82392 16.875 6.01469 16.796 6.15534 16.6553C6.29599 16.5147 6.37501 16.3239 6.37501 16.125V15H9.00001C9.19892 15 9.38969 14.921 9.53034 14.7803C9.67099 14.6397 9.75001 14.4489 9.75001 14.25C9.75001 14.0511 9.67099 13.8603 9.53034 13.7197C9.38969 13.579 9.19892 13.5 9.00001 13.5H6.37501V12.375C6.37501 12.1761 6.29599 11.9853 6.15534 11.8447C6.01469 11.704 5.82392 11.625 5.62501 11.625ZM4.87501 15.375H2.62501V13.125H4.87501V15.375ZM3.00001 6.64351V9.75001C3.00001 9.94892 3.07903 10.1397 3.21968 10.2803C3.36033 10.421 3.5511 10.5 3.75001 10.5C3.94892 10.5 4.13969 10.421 4.28034 10.2803C4.42099 10.1397 4.50001 9.94892 4.50001 9.75001V6.64351C5.207 6.46096 5.82315 6.02684 6.23296 5.4225C6.64277 4.81817 6.8181 4.08512 6.7261 3.36076C6.63409 2.6364 6.28106 1.97046 5.73318 1.48777C5.1853 1.00507 4.48019 0.73877 3.75001 0.73877C3.01983 0.73877 2.31471 1.00507 1.76683 1.48777C1.21895 1.97046 0.865924 2.6364 0.773918 3.36076C0.681912 4.08512 0.857247 4.81817 1.26706 5.4225C1.67687 6.02684 2.29301 6.46096 3.00001 6.64351ZM3.75001 2.25001C4.04668 2.25001 4.33669 2.33798 4.58336 2.5028C4.83004 2.66762 5.0223 2.90189 5.13583 3.17598C5.24936 3.45007 5.27906 3.75167 5.22119 4.04264C5.16331 4.33361 5.02045 4.60089 4.81067 4.81067C4.60089 5.02045 4.33361 5.16331 4.04264 5.22118C3.75167 5.27906 3.45007 5.24936 3.17598 5.13583C2.90189 5.02229 2.66763 4.83004 2.5028 4.58336C2.33798 4.33669 2.25001 4.04668 2.25001 3.75001C2.25001 3.35218 2.40804 2.97065 2.68935 2.68935C2.97065 2.40804 3.35218 2.25001 3.75001 2.25001ZM15 11.3565V9.00001C15 8.8011 14.921 8.61033 14.7803 8.46968C14.6397 8.32902 14.4489 8.25001 14.25 8.25001C14.0511 8.25001 13.8603 8.32902 13.7197 8.46968C13.579 8.61033 13.5 8.8011 13.5 9.00001V11.3565C12.793 11.5391 12.1769 11.9732 11.7671 12.5775C11.3572 13.1818 11.1819 13.9149 11.2739 14.6393C11.3659 15.3636 11.719 16.0296 12.2668 16.5122C12.8147 16.9949 13.5198 17.2612 14.25 17.2612C14.9802 17.2612 15.6853 16.9949 16.2332 16.5122C16.7811 16.0296 17.1341 15.3636 17.2261 14.6393C17.3181 13.9149 17.1428 13.1818 16.733 12.5775C16.3232 11.9732 15.707 11.5391 15 11.3565ZM14.25 15.75C13.9533 15.75 13.6633 15.662 13.4167 15.4972C13.17 15.3324 12.9777 15.0981 12.8642 14.824C12.7507 14.5499 12.721 14.2483 12.7788 13.9574C12.8367 13.6664 12.9796 13.3991 13.1893 13.1893C13.3991 12.9796 13.6664 12.8367 13.9574 12.7788C14.2483 12.721 14.5499 12.7507 14.824 12.8642C15.0981 12.9777 15.3324 13.17 15.4972 13.4167C15.662 13.6633 15.75 13.9533 15.75 14.25C15.75 14.6478 15.592 15.0294 15.3107 15.3107C15.0294 15.592 14.6478 15.75 14.25 15.75ZM12.375 6.37501H16.125C16.3239 6.37501 16.5147 6.29599 16.6553 6.15534C16.796 6.01468 16.875 5.82392 16.875 5.62501V1.87501C16.875 1.67609 16.796 1.48533 16.6553 1.34468C16.5147 1.20402 16.3239 1.12501 16.125 1.12501H12.375C12.1761 1.12501 11.9853 1.20402 11.8447 1.34468C11.704 1.48533 11.625 1.67609 11.625 1.87501V3.00001H9.00001C8.8011 3.00001 8.61033 3.07902 8.46968 3.21968C8.32903 3.36033 8.25001 3.55109 8.25001 3.75001C8.25001 3.94892 8.32903 4.13968 8.46968 4.28034C8.61033 4.42099 8.8011 4.50001 9.00001 4.50001H11.625V5.62501C11.625 5.82392 11.704 6.01468 11.8447 6.15534C11.9853 6.29599 12.1761 6.37501 12.375 6.37501ZM13.125 2.62501H15.375V4.87501H13.125V2.62501Z" fill="white"/>
</g>
<defs>
<clipPath id="clip0_1409_674">
<rect width="18" height="18" fill="white"/>
</clipPath>
</defs>
</svg>
